<?xml version="1.0" standalone="no"?>
<!DOCTYPE svg PUBLIC "-//W3C//DTD SVG 1.1//EN" "http://www.w3.org/Graphics/SVG/1.1/DTD/svg11.dtd" >
<svg>
<metadata>
Created by FontForge 20090914 at Sat Jul 19 15:10:27 2014
 By www-data
Developed by S.G. Moye 1991. Public Domain.
</metadata>
<defs>
<font id="ArchitextRegular" horiz-adv-x="1002" >
  <font-face 
    font-family="Architext"
    font-weight="5"
    font-stretch="normal"
    units-per-em="1000"
    panose-1="0 0 0 0 0 0 0 0 0 0"
    ascent="847"
    descent="-153"
    x-height="471"
    cap-height="608"
    bbox="-23 -153 1500 847"
    underline-thickness="20"
    underline-position="-79"
    unicode-range="U+0020-U+25CA"
  />
<missing-glyph horiz-adv-x="847" 
d="M52 0v847h743v-847h-743zM743 52v743h-639v-743h639z" />
    <glyph glyph-name=".notdef" horiz-adv-x="847" 
d="M52 0v847h743v-847h-743zM743 52v743h-639v-743h639z" />
    <glyph glyph-name="space" unicode=" " horiz-adv-x="557" 
 />
    <glyph glyph-name="exclam" unicode="!" horiz-adv-x="126" 
d="M75 648v-497c0 -7.33301 -2.5 -12.333 -7.5 -15s-9.16699 -4 -12.5 -4c-13.333 0 -20 6.33301 -20 19v497c0 7.33301 2.5 12.333 7.5 15s9.16699 4 12.5 4c13.333 0 20 -6.33301 20 -19zM75 -14v-104c0 -7.33301 -2.5 -12.333 -7.5 -15s-9.16699 -4 -12.5 -4
c-13.333 0 -20 6.33301 -20 19v104c0 7.33301 2.5 12.333 7.5 15s9.16699 4 12.5 4c13.333 0 20 -6.33301 20 -19z" />
    <glyph glyph-name="quotedbl" unicode="&#x22;" horiz-adv-x="256" 
d="M66 655v-240c0 -7.33301 -2.5 -12.333 -7.5 -15s-9.16699 -4 -12.5 -4c-13.333 0 -20 6.33301 -20 19v240c0 8 2.5 13.333 7.5 16s9.16699 4 12.5 4c13.333 0 20 -6.66699 20 -20zM225 655v-240c0 -7.33301 -2.5 -12.333 -7.5 -15s-9.16699 -4 -12.5 -4
c-13.333 0 -20 6.33301 -20 19v240c0 8 2.5 13.333 7.5 16s9.16699 4 12.5 4c13.333 0 20 -6.66699 20 -20z" />
    <glyph glyph-name="numbersign" unicode="#" horiz-adv-x="737" 
d="M230 229v128h-182c-7.33301 0 -12.333 2.5 -15 7.5s-4 9.16699 -4 12.5c0 13.333 6.33301 20 19 20h182v145c0 8 2.5 13.333 7.5 16s9.16699 4 12.5 4c13.333 0 20 -6.66699 20 -20v-145h197v145c0 8 2.5 13.333 7.5 16s9.16699 4 12.5 4c13.333 0 20 -6.66699 20 -20
v-145h177c7.33301 0 12.333 -2.5 15 -7.5s4 -9.16699 4 -12.5c0 -13.333 -6.33301 -20 -19 -20h-177v-128h177c7.33301 0 12.333 -2.5 15 -7.5s4 -9.16699 4 -12.5c0 -13.333 -6.33301 -20 -19 -20h-177v-143c0 -8 -2.5 -13.333 -7.5 -16s-9.16699 -4 -12.5 -4
c-13.333 0 -20 6.66699 -20 20v143h-197v-143c0 -8 -2.5 -13.333 -7.5 -16s-9.16699 -4 -12.5 -4c-13.333 0 -20 6.66699 -20 20v143h-182c-7.33301 0 -12.333 2.5 -15 7.5s-4 9.16699 -4 12.5c0 13.333 6.33301 20 19 20h182zM467 357h-197v-128h197v128z" />
    <glyph glyph-name="dollar" unicode="$" horiz-adv-x="784" 
d="M318 606h156v49c0 8 2.5 13.333 7.5 16s9.16699 4 12.5 4c13.333 0 20 -6.66699 20 -20v-49h132c5.33301 0 10 -2 14 -6l70 -70c3.33301 -3.33301 5 -8 5 -14v-98c0 -8 -2.5 -13.333 -7.5 -16s-9.16699 -4 -12.5 -4c-13.333 0 -20 6.66699 -20 20v89l-58 59h-123v-263
h168c5.33301 0 10 -1.66699 14 -5l34 -34c3.33301 -4 5 -8.66699 5 -14v-164c0 -5.33301 -1.66699 -10 -5 -14l-72 -72c-4 -4 -9 -6 -15 -6h-129v-42c0 -7.33301 -2.5 -12.333 -7.5 -15s-9.16699 -4 -12.5 -4c-13.333 0 -20 6.33301 -20 19v42h-156v-42
c0 -7.33301 -2.5 -12.333 -7.5 -15s-9.16699 -4 -12.5 -4c-13.333 0 -20 6.33301 -20 19v42h-124c-6 0 -11 2 -15 6l-72 72c-3.33301 3.33301 -5 8 -5 14v101c0 8 2.5 13.333 7.5 16s9.16699 4 12.5 4c13.333 0 20 -6.66699 20 -20v-92l60 -61h116v229h-127
c-5.33301 0 -10 2 -14 6l-70 69c-3.33301 3.33301 -5 8.33301 -5 15v165c0 6.66699 1.66699 11.667 5 15l67 67c4 4 9 6 15 6h129v49c0 8 2.5 13.333 7.5 16s9.16699 4 12.5 4c13.333 0 20 -6.66699 20 -20v-49zM514 34h120l61 61v146l-22 22h-159v-229zM318 34h156v229
h-156v-229zM318 566v-263h156v263h-156zM278 303v263h-120l-56 -56v-148l58 -59h118z" />
    <glyph glyph-name="percent" unicode="%" horiz-adv-x="913" 
d="M129 670h235.001c5.33301 0 10 -1.66699 14 -5l67 -65c4 -3.33301 6 -8 6 -14v-101c0 -6 -1.66699 -11 -5 -15l-68 -67c-2.66699 -3.33301 -7.33398 -5 -14.001 -5h-235c-6.66699 0 -11.667 1.66699 -15 5l-67 67c-3.33301 3.33301 -5 8.33301 -5 15v101
c0 6 2 10.667 6 14l67 65c4 3.33301 8.66699 5 14 5zM777.001 636l-634 -635.999c-4 -4 -8.33301 -6 -13 -6c-14 0 -21 7.33301 -21 22c0 5.33301 1.66699 9.66602 5 12.999l634 636c4 4 8.33301 6 13 6c4 0 8.5 -1.83301 13.5 -5.5s7.5 -9.5 7.5 -17.5
c0 -4.66699 -1.66699 -8.66699 -5 -12zM530.001 267.001h235.001c5.33301 0 9.66602 -1.66699 12.999 -5l68 -65c4 -4 6 -9 6 -15v-100c0 -6 -2 -11 -6 -15l-67 -67c-4 -4 -8.66699 -6 -14 -6h-235c-6 0 -11 2 -15 6l-67 67c-4 4 -6 9 -6 15v100c0 6 2.33301 11 7 15l67 65
c4 3.33301 8.66699 5 14 5zM82.002 578.001v-84l56 -56h217l56 56v84l-55 52h-219zM482.002 174.001v-84l56 -56h218l56 56v84l-55 53h-219z" />
    <glyph glyph-name="ampersand" unicode="&#x26;" horiz-adv-x="1000" 
d="M800 95l60 -61.002h59c8 0 13.333 -2.5 16 -7.5s4 -9.16699 4 -12.5c0 -13.333 -6.66699 -20 -20 -20h-68c-6 0 -10.667 2 -14 6l-57 58l-57 -58c-3.33301 -4 -8 -6 -14 -6h-558c-5.33301 0 -10 2 -14 6l-70 70c-3.33301 2.66699 -5 7.33398 -5 14.001v132
c0 6.66699 1.66699 11.334 5 14.001l53 53l-53 53c-3.33301 3.33301 -5 8 -5 14v166c0 6.66699 1.66699 11.334 5 14.001l70 70c4 4 8.66699 6 14 6h562c5.33301 0 10 -2 14 -6l70 -70c3.33301 -2.66699 5 -7.33398 5 -14.001v-96c0 -7.33301 -2.5 -12.333 -7.5 -15
s-9.16699 -4 -12.5 -4c-13.333 0 -20 6.33301 -20 19v87l-58 59h-544l-58 -59v-148l56 -56h411c7.33301 0 12.333 -2.5 15 -7.5s4 -9.16699 4 -12.5c0 -13.333 -6.33301 -20 -19 -20h-411l-56 -56v-114l58 -59h540l60 61v168h-73c-7.33301 0 -12.333 2.5 -15 7.5
s-4 9.16699 -4 12.5c0 13.333 6.33301 20 19 20h183c8 0 13.333 -2.5 16 -7.5s4 -9.16699 4 -12.5c0 -13.333 -6.66699 -20 -20 -20h-70v-168z" />
    <glyph glyph-name="quotesingle" unicode="'" horiz-adv-x="95" 
d="M71 655v-240c0 -7.33301 -2.5 -12.333 -7.5 -15s-9.16699 -4 -12.5 -4c-13.333 0 -20 6.33301 -20 19v240c0 8 2.5 13.333 7.5 16s9.16699 4 12.5 4c13.333 0 20 -6.66699 20 -20z" />
    <glyph glyph-name="parenleft" unicode="(" horiz-adv-x="352" 
d="M286 636h-80l-133 -133v-480l117 -118h100c7.33301 0 12.333 -2.5 15 -7.5s4 -9.16699 4 -12.5c0 -13.333 -6.33301 -20 -19 -20h-108c-6.66699 0 -11.667 1.66699 -15 5l-129 130c-3.33301 4 -5 8.66699 -5 14v498c0 6 1.66699 10.667 5 14l144 144c4 4 9 6 15 6h89
c8 0 13.333 -2.5 16 -7.5s4 -9.16699 4 -12.5c0 -13.333 -6.66699 -20 -20 -20z" />
    <glyph glyph-name="parenright" unicode=")" horiz-adv-x="339" 
d="M46 676h89c6 0 11 -2 15 -6l144 -144c3.33301 -3.33301 5 -8 5 -14v-498c0 -5.33301 -1.66699 -10 -5 -14l-129 -130c-3.33301 -3.33301 -8.33301 -5 -15 -5h-108c-7.33301 0 -12.333 2.5 -15 7.5s-4 9.16699 -4 12.5c0 13.333 6.33301 20 19 20h100l117 118v480
l-133 133h-80c-8 0 -13.333 2.5 -16 7.5s-4 9.16699 -4 12.5c0 13.333 6.66699 20 20 20z" />
    <glyph glyph-name="asterisk" unicode="*" horiz-adv-x="384" 
d="M141 551l-82.999 83c-4 4 -6 8.66699 -6 14s2.16699 10.166 6.5 14.499s9.16602 6.5 14.499 6.5s10 -2.33301 14 -7l103 -102l102 102c4 4 8.66699 6 14 6c6 0 11 -2 15 -6s6 -9 6 -15c0 -4.66699 -2 -9 -6 -13l-83 -83h116c8 0 13.333 -2.5 16 -7.5s4 -9.16699 4 -12.5
c0 -13.333 -6.66699 -20 -20 -20h-116l83 -82c4 -4 6 -8.66699 6 -14s-2.16699 -10.166 -6.5 -14.499s-9.5 -6.5 -15.5 -6.5c-4.66699 0 -9 2 -13 6l-102 102l-103 -102c-4 -4 -8.66699 -6 -14 -6c-6 0 -11 2 -15 6s-6 9 -6 15c0 5.33301 2 10 6 14l83 82h-116
c-8 0 -13.333 2.5 -16 7.5s-4 9.16699 -4 12.5c0 13.333 6.66699 20 20 20h116z" />
    <glyph glyph-name="plus" unicode="+" horiz-adv-x="528" 
d="M290 232v-218c0 -7.33301 -2.5 -12.333 -7.5 -15s-9.16699 -4 -12.5 -4c-13.333 0 -20 6.33301 -20 19v218h-184c-8 0 -13.333 2.5 -16 7.5s-4 9.16699 -4 12.5c0 13.333 6.66699 20 20 20h184v179c0 8 2.5 13.333 7.5 16s9.16699 4 12.5 4c13.333 0 20 -6.66699 20 -20
v-179h179c7.33301 0 12.333 -2.5 15 -7.5s4 -9.16699 4 -12.5c0 -13.333 -6.33301 -20 -19 -20h-179z" />
    <glyph glyph-name="comma" unicode="," horiz-adv-x="182" 
d="M68 110h66.999c13.333 0 20 -6.66699 20 -20v-100c0 -5.33301 -1.66699 -10 -5 -14l-108 -109c-4 -4 -8.66699 -6 -14 -6s-10.166 2.16699 -14.499 6.5s-6.5 9.5 -6.5 15.5c0 4.66699 2 9 6 13l102 103v71h-47c-7.33301 0 -12.333 2.5 -15 7.5s-4 9.16699 -4 12.5
c0 13.333 6.33301 20 19 20z" />
    <glyph glyph-name="hyphen" unicode="-" horiz-adv-x="535" 
d="M40 272h440c7.33301 0 12.333 -2.5 15 -7.5s4 -9.16699 4 -12.5c0 -13.333 -6.33301 -20 -19 -20h-440c-7.33301 0 -12.333 2.5 -15 7.5s-4 9.16699 -4 12.5c0 13.333 6.33301 20 19 20z" />
    <glyph glyph-name="period" unicode="." horiz-adv-x="110" 
d="M76 88v-74c0 -7.33301 -2.5 -12.333 -7.5 -15s-9.16699 -4 -12.5 -4c-13.333 0 -20 6.33301 -20 19v74c0 7.33301 2.5 12.333 7.5 15s9.16699 4 12.5 4c13.333 0 20 -6.33301 20 -19z" />
    <glyph glyph-name="slash" unicode="/" horiz-adv-x="906" 
d="M861 636l-765 -766c-4 -4 -8.33301 -6 -13 -6c-4 0 -8.5 1.83301 -13.5 5.5s-7.5 9.5 -7.5 17.5c0 4.66699 1.66699 8.66699 5 12l765 766c4 4 8.33301 6 13 6c4 0 8.5 -1.83301 13.5 -5.5s7.5 -9.5 7.5 -17.5c0 -4.66699 -1.66699 -8.66699 -5 -12z" />
    <glyph glyph-name="zero" unicode="0" horiz-adv-x="782" 
d="M64 467l174.998 134.999c4.66699 2.66699 8.66699 4 12 4h291c3.33301 0 7.33301 -1.33301 12 -4l170 -135c5.33301 -3.33301 8 -8.66602 8 -15.999v-297c0 -6.66699 -2.33301 -12 -7 -16l-173 -139c-5.33301 -3.33301 -9.66602 -5 -12.999 -5h-290
c-3.33301 0 -7.66602 1.66699 -12.999 5l-173 142c-4.66699 4 -7 9 -7 15v295c0 6 2.66699 11.333 8 16zM95.998 164.999l159 -131h277l160 129v279l-157 124h-277l-162 -124v-277z" />
    <glyph glyph-name="one" unicode="1" horiz-adv-x="486" 
d="M234 34v532h-115c-7.33301 0 -12.333 2.5 -15 7.5s-4 9.16699 -4 12.5c0 13.333 6.33301 20 19 20h135c13.333 0 20 -6.66699 20 -20v-552h179c7.33301 0 12.333 -2.5 15 -7.5s4 -9.16699 4 -12.5c0 -13.333 -6.33301 -20 -19 -20h-399c-7.33301 0 -12.333 2.5 -15 7.5
s-4 9.16699 -4 12.5c0 13.333 6.33301 20 19 20h180z" />
    <glyph glyph-name="two" unicode="2" horiz-adv-x="657" 
d="M22 482v34.998c0 6.66699 1.66699 11.334 5 14.001l70 69c5.33301 4 10 6 14 6h360c6 0 11 -2 15 -6l134 -134c4 -4 6 -9 6 -15v-134c0 -6.66699 -2 -11.667 -6 -15l-99 -98c-5.33301 -4 -10.333 -6 -15 -6h-386l-58 -57v-107h548c8 0 13.333 -2.5 16 -7.5
s4 -9.16699 4 -12.5c0 -13.333 -6.66699 -20 -20 -20h-568c-13.333 0 -20 6.66699 -20 20v136c0 6.66699 1.66699 11.334 5 14.001l70 69c4 3.33301 8.66699 5 14 5h387l88 88v116l-124 124h-342l-58 -58v-26c0 -7.33301 -2.5 -12.333 -7.5 -15s-9.16699 -4 -12.5 -4
c-13.333 0 -20 6.33301 -20 19z" />
    <glyph glyph-name="three" unicode="3" horiz-adv-x="662" 
d="M516 200l-10 -2h-323c-7.33301 0 -12.333 2.5 -15 7.5s-4 9.16699 -4 12.5c0 13.333 6.33301 20 19 20h315l92 92v110l-125 126h-343l-58 -58v-23c0 -8 -2.5 -13.333 -7.5 -16s-9.16699 -4 -12.5 -4c-13.333 0 -20 6.66699 -20 20v32c0 6 2 10.667 6 14l69 69
c5.33301 4 10.333 6 15 6h360c5.33301 0 10 -2 14 -6l137 -137c3.33301 -3.33301 5 -8 5 -14v-127c0 -7.33301 -1.66699 -12.333 -5 -15l-80 -79l80 -79c3.33301 -3.33301 5 -8.33301 5 -15v-67c0 -6 -1.66699 -10.667 -5 -14l-53 -53c-4 -4 -8.66699 -6 -14 -6h-446
c-5.33301 0 -10 2 -14 6l-68 67c-4 3.33301 -6 8.33301 -6 15v40c0 8 2.5 13.333 7.5 16s9.16699 4 12.5 4c13.333 0 20 -6.66699 20 -20v-32l57 -56h428l41 42v50z" />
    <glyph glyph-name="four" unicode="4" horiz-adv-x="633" 
d="M488 14v523l-402 -402h492c7.33301 0 12.333 -2.5 15 -7.5s4 -9.16699 4 -12.5c0 -13.333 -6.33301 -20 -19 -20h-541c-14 0 -21 7 -21 21c0 5.33301 2 10 6 14l472 470c4 4 8.66699 6 14 6s10 -1.66699 14 -5s6 -8.33301 6 -15v-572c0 -7.33301 -2.5 -12.333 -7.5 -15
s-9.16699 -4 -12.5 -4c-13.333 0 -20 6.33301 -20 19z" />
    <glyph glyph-name="five" unicode="5" horiz-adv-x="666" 
d="M534 566h-475v-126h439c6.66699 0 11.667 -2 15 -6l105 -105c3.33301 -4 5 -9 5 -15v-160c0 -6 -1.66699 -11 -5 -15l-139 -139c-3.33301 -4 -8 -6 -14 -6h-289c-6 0 -10.667 2 -14 6l-137 138c-4 4 -6 8.66699 -6 14v100c0 7.33301 2.5 12.333 7.5 15s9.16699 4 12.5 4
c13.333 0 20 -6.33301 20 -19v-91l126 -127h271l127 128v144l-93 94h-451c-13.333 0 -20 6.66699 -20 20v166c0 13.333 6.66699 20 20 20h495c7.33301 0 12.333 -2.5 15 -7.5s4 -9.16699 4 -12.5c0 -13.333 -6.33301 -20 -19 -20z" />
    <glyph glyph-name="six" unicode="6" horiz-adv-x="665" 
d="M508 566h-290.001l-158 -158v-248l126 -126h275l128 128v114l-123 123h-314l-52 -52c-4 -4 -8.66699 -6 -14 -6s-10.166 2.16699 -14.499 6.5s-6.5 9.5 -6.5 15.5c0 4.66699 2 9 6 13l58 58c4 3.33301 8.66699 5 14 5h331c6 0 11 -1.66699 15 -5l134 -135
c4 -4 6 -8.66699 6 -14v-131c0 -6 -2 -11 -6 -15l-139 -139c-4 -4 -8.66699 -6 -14 -6h-293c-6 0 -11 2 -15 6l-136 137c-4 4 -6 8.66699 -6 14v266c0 5.33301 2 10 6 14l168 169c4 4 9 6 15 6h299c7.33301 0 12.333 -2.5 15 -7.5s4 -9.16699 4 -12.5
c0 -13.333 -6.33301 -20 -19 -20z" />
    <glyph glyph-name="seven" unicode="7" horiz-adv-x="670" 
d="M50 606h573.999c13.333 0 20 -7 20 -21c0 -5.33301 -2 -10 -6 -14l-568 -569c-4 -4 -8.66699 -6 -14 -6s-10.166 2.16699 -14.499 6.5s-6.5 9.5 -6.5 15.5c0 4.66699 2 9 6 13l534 535h-525c-7.33301 0 -12.333 2.5 -15 7.5s-4 9.16699 -4 12.5
c0 13.333 6.33301 20 19 20z" />
    <glyph glyph-name="eight" unicode="8" horiz-adv-x="650" 
d="M146 371l-52 51c-3.33301 3.33301 -5 8.33301 -5 15v84c0 6 1.66699 10.667 5 14l66 65c5.33301 4 10 6 14 6h301c4.66699 0 9.66699 -2 15 -6l65 -65c4 -3.33301 6 -8 6 -14v-84c0 -6 -2 -11 -6 -15l-52 -52l117 -85c5.33301 -3.33301 8 -8.66602 8 -15.999v-115
c0 -4.66699 -2 -9.66699 -6 -15l-138 -139c-3.33301 -4 -8 -6 -14 -6h-289c-6 0 -11 2 -15 6l-139 139c-3.33301 3.33301 -5 8.33301 -5 15v115c0 7.33301 2.66699 12.666 8 15.999zM185 350l-123 -92v-96l128 -128h271l127 128v96l-123 92h-280zM465 390l56 56v66l-55 54
h-283l-54 -54v-66l57 -56h279z" />
    <glyph glyph-name="nine" unicode="9" horiz-adv-x="717" 
d="M212 34h255.001l157 158v250l-124 124h-281l-124 -124v-113l128 -128h304l55 54c4 4 8.66699 6 14 6s10.166 -2.16699 14.499 -6.5s6.5 -9.5 6.5 -15.5c0 -4.66699 -2 -9 -6 -13l-61 -60c-3.33301 -3.33301 -8 -5 -14 -5h-322c-5.33301 0 -10 1.66699 -14 5l-139 140
c-4 3.33301 -6 8 -6 14v131c0 6.66699 2 11.667 6 15l135 134c5.33301 4 10 6 14 6h299c4 0 8.66699 -2 14 -6l135 -134c4 -3.33301 6 -8.33301 6 -15v-268c0 -4 -2 -8.66699 -6 -14l-168 -169c-3.33301 -4 -8 -6 -14 -6h-264c-7.33301 0 -12.333 2.5 -15 7.5
s-4 9.16699 -4 12.5c0 13.333 6.33301 20 19 20z" />
    <glyph glyph-name="colon" unicode=":" horiz-adv-x="110" 
d="M71 521v-72c0 -8 -2.5 -13.333 -7.5 -16s-9.16699 -4 -12.5 -4c-13.333 0 -20 6.66699 -20 20v72c0 7.33301 2.5 12.333 7.5 15s9.16699 4 12.5 4c13.333 0 20 -6.33301 20 -19zM71 115v-72c0 -7.33301 -2.5 -12.333 -7.5 -15s-9.16699 -4 -12.5 -4
c-13.333 0 -20 6.33301 -20 19v72c0 8 2.5 13.333 7.5 16s9.16699 4 12.5 4c13.333 0 20 -6.66699 20 -20z" />
    <glyph glyph-name="semicolon" unicode=";" horiz-adv-x="183" 
d="M62 118h67c13.333 0 20 -6.66699 20 -20v-112c0 -4 -2 -8.66699 -6 -14l-101 -103c-4 -4 -8.33301 -6 -13 -6c-6 0 -11 2 -15 6s-6 9 -6 15c0 4 2 8 6 12l95 98v84h-47c-8 0 -13.333 2.5 -16 7.5s-4 9.16699 -4 12.5c0 13.333 6.66699 20 20 20zM120 516v-70
c0 -7.33301 -2.5 -12.333 -7.5 -15s-9.16699 -4 -12.5 -4c-13.333 0 -20 6.33301 -20 19v70c0 7.33301 2.5 12.333 7.5 15s9.16699 4 12.5 4c13.333 0 20 -6.33301 20 -19z" />
    <glyph glyph-name="less" unicode="&#x3c;" horiz-adv-x="366" 
d="M297 538l-227 -228.001v-16l260 -262c4 -4 6 -8.66699 6 -14s-2.16699 -10.166 -6.5 -14.499s-9.5 -6.5 -15.5 -6.5c-4 0 -8 2 -12 6l-267 267c-3.33301 4 -5 9 -5 15v33c0 6 1.66699 11 5 15l233 233c4 4 8.33301 6 13 6c14 0 21 -7.33301 21 -22
c0 -4.66699 -1.66699 -8.66699 -5 -12z" />
    <glyph glyph-name="equal" unicode="=" horiz-adv-x="676" 
d="M79 418h504c8 0 13.333 -2.5 16 -7.5s4 -9.16699 4 -12.5c0 -13.333 -6.66699 -20 -20 -20h-504c-7.33301 0 -12.333 2.5 -15 7.5s-4 9.16699 -4 12.5c0 13.333 6.33301 20 19 20zM79 219h504c8 0 13.333 -2.5 16 -7.5s4 -9.16699 4 -12.5
c0 -13.333 -6.66699 -20 -20 -20h-504c-7.33301 0 -12.333 2.5 -15 7.5s-4 9.16699 -4 12.5c0 13.333 6.33301 20 19 20z" />
    <glyph glyph-name="greater" unicode="&#x3e;" horiz-adv-x="352" 
d="M70 586l251.999 -253c4.66699 -3.33301 7 -8.33301 7 -15v-33c0 -4.66699 -2 -9.66699 -6 -15l-266 -267c-4 -4 -8.66699 -6 -14 -6s-10.166 2.16699 -14.499 6.5s-6.5 9.5 -6.5 15.5c0 4.66699 2 9 6 13l261 262v16l-246 247c-4 4 -6 8 -6 12c0 5.33301 2 10.333 6 15
s9 7 15 7c3.33301 0 7.33301 -1.66699 12 -5z" />
    <glyph glyph-name="question" unicode="?" horiz-adv-x="677" 
d="M26 482v34.001c0 6 2 10.667 6 14l72 70c5.33301 4 10 6 14 6h427c5.33301 0 10 -2 14 -6l70 -70c3.33301 -2.66699 5 -7.33398 5 -14.001v-130c0 -6 -1.66699 -10.667 -5 -14l-300 -300c-4 -4 -8.66699 -6 -14 -6c-6 0 -11 2 -15 6s-6 9 -6 15c0 5.33301 2 10 6 14
l294 294v112l-58 59h-410l-60 -58v-26c0 -7.33301 -2.5 -12.333 -7.5 -15s-9.16699 -4 -12.5 -4c-13.333 0 -20 6.33301 -20 19zM286 -33.999v-60c0 -7.33301 -2.5 -12.333 -7.5 -15s-9.16699 -4 -12.5 -4c-13.333 0 -20 6.33301 -20 19v60c0 8 2.5 13.333 7.5 16
s9.16699 4 12.5 4c13.333 0 20 -6.66699 20 -20z" />
    <glyph glyph-name="at" unicode="@" horiz-adv-x="967" 
d="M284 274l160 159.999c4 4 8.66699 6 14 6h32c5.33301 0 10 -2 14 -6l263 -263h48l55 58v213l-159 121h-481l-155 -121v-348l160 -124h548l87 56v29c0 8 2.5 13.333 7.5 16s9.16699 4 12.5 4c13.333 0 20 -6.66699 20 -20v-41c0 -7.33301 -2.66699 -12.666 -8 -15.999
l-101 -65c-4 -2 -7.66699 -3 -11 -3h-562c-4.66699 0 -8.66699 1.33301 -12 4l-173 134c-5.33301 4 -8 9.33301 -8 16v367c0 6.66699 2.66699 12 8 16l168 132c4.66699 2.66699 8.66699 4 12 4h495c3.33301 0 7.33301 -1.33301 12 -4l172 -132c5.33301 -4 8 -9.33301 8 -16
v-230c0 -5.33301 -1.66699 -10 -5 -14l-67 -69c-4 -4.66699 -9 -7 -15 -7h-65c-5.33301 0 -10 2 -14 6l-98 97h-344l-98 -97c-4 -4 -8.66699 -6 -14 -6c-6 0 -11 2 -15 6s-6 9 -6 15c0 5.33301 2 10 6 14l69 68h-30c-8 0 -13.333 2.5 -16 7.5s-4 9.16699 -4 12.5
c0 13.333 6.66699 20 20 20h70zM606 273.999l-125 126h-14l-125 -126h264z" />
    <glyph glyph-name="A" unicode="A" horiz-adv-x="1314" 
d="M267 238l364.001 364c4 4 9 6 15 6h34c6 0 10.667 -2 14 -6l574 -573c4 -4 6 -8.66699 6 -14c0 -6 -2 -11 -6 -15s-9 -6 -15 -6c-5.33301 0 -10 2 -14 6l-198 198h-756l-199 -198c-4 -4 -8.66699 -6 -14 -6c-4.66699 0 -9.33398 2 -14.001 6s-7 8.66699 -7 14
s2.33301 10.333 7 15l169 169h-57c-8 0 -13.333 2.5 -16 7.5s-4 9.16699 -4 12.5c0 13.333 6.66699 20 20 20h97zM1001 238l-330 330h-17l-329 -330h676z" />
    <glyph glyph-name="B" unicode="B" horiz-adv-x="906" 
d="M98 521c0 5.33301 2 10 6 14l67 67c4 4 9 6 15 6h533c6.66699 0 11.667 -2 15 -6l102 -103c4 -5.33301 6 -10 6 -14v-233c0 -6 -2 -10.667 -6 -14l-34 -34c-3.33301 -4 -8 -6 -14 -6h-649l-1 -164h636l59 59v52l-29 27c-4 4 -6 8.66699 -6 14c0 6 2 11 6 15s9 6 15 6
c5.33301 0 10 -2 14 -6l34 -33c4 -4 6 -8.66699 6 -14v-70c0 -6 -2 -10.667 -6 -14l-69 -70c-4 -4 -9 -6 -15 -6h-665c-13.333 0 -20 6.66699 -20 20l1 184h-38c-8 0 -13.333 2.5 -16 7.5s-4 9.16699 -4 12.5c0 13.333 6.66699 20 20 20h38zM139 238h640l23 23v215l-92 92
h-516l-56 -56z" />
    <glyph glyph-name="C" unicode="C" horiz-adv-x="977" 
d="M937 127l-0.000976562 -47.999c0 -5.33301 -2.33301 -10 -7 -14l-67 -65c-5.33301 -4 -9.66602 -6 -12.999 -6h-665c-6 0 -11 2.33301 -15 7l-105 108c-4 5.33301 -6 9.66602 -6 12.999v361c0 6.66699 2 11.667 6 15l105 104c5.33301 4 10.333 6 15 6h600
c5.33301 0 10 -2 14 -6l65 -68c4 -4 6 -8.33301 6 -13v-39c0 -7.33301 -2.5 -12.333 -7.5 -15s-9.16699 -4 -12.5 -4c-13.333 0 -20 6.33301 -20 19v31l-53 55h-583l-95 -94v-344l94 -96h649l55 53v40c0 8 2.5 13.333 7.5 16s9.16699 4 12.5 4c13.333 0 20 -6.66699 20 -20z
" />
    <glyph glyph-name="D" unicode="D" horiz-adv-x="833" 
d="M54 14v501.999c0 4 2 8.66699 6 14l70 72c4 4 8.66699 6 14 6h522c6 0 11 -2 15 -6l106 -111c4 -5.33301 6 -9.66602 6 -12.999v-358c0 -4 -2 -8.66699 -6 -14l-103 -105c-4 -4.66699 -8.66699 -7 -14 -7h-596c-13.333 0 -20 6.66699 -20 20zM662 33.999l91 94v342
l-95 98h-506l-58 -60v-474h568z" />
    <glyph glyph-name="E" unicode="E" horiz-adv-x="874" 
d="M137 198v-164h673c8 0 13.333 -2.5 16 -7.5s4 -9.16699 4 -12.5c0 -13.333 -6.66699 -20 -20 -20h-693c-13.333 0 -20 6.66699 -20 20v184h-52c-8 0 -13.333 2.5 -16 7.5s-4 9.16699 -4 12.5c0 13.333 6.66699 20 20 20h52v316c0 6.66699 2.33301 12 7 16l38 33
c4 3.33301 8.33301 5 13 5h663c7.33301 0 12.333 -2.5 15 -7.5s4 -9.16699 4 -12.5c0 -13.333 -6.33301 -20 -19 -20h-656l-25 -22v-308h549c7.33301 0 12.333 -2.5 15 -7.5s4 -9.16699 4 -12.5c0 -13.333 -6.33301 -20 -19 -20h-549z" />
    <glyph glyph-name="F" unicode="F" horiz-adv-x="889" 
d="M107 238v312.001c0 3.33301 2 7.66602 6 12.999l36 39c4 4 8.66699 6 14 6h667c8 0 13.333 -2.5 16 -7.5s4 -9.16699 4 -12.5c0 -13.333 -6.66699 -20 -20 -20h-658l-25 -26v-304h592c8 0 13.333 -2.5 16 -7.5s4 -9.16699 4 -12.5c0 -13.333 -6.66699 -20 -20 -20h-592
v-184c0 -7.33301 -2.5 -12.333 -7.5 -15s-9.16699 -4 -12.5 -4c-13.333 0 -20 6.33301 -20 19v184h-45c-7.33301 0 -12.333 2.5 -15 7.5s-4 9.16699 -4 12.5c0 13.333 6.33301 20 19 20h45z" />
    <glyph glyph-name="G" unicode="G" horiz-adv-x="968" 
d="M922 89v-7v-168c0 -8 -2.5 -13.333 -7.5 -16s-9.16699 -4 -12.5 -4c-13.333 0 -20 6.66699 -20 20v124l-35 -36c-4 -3.33301 -8.66699 -5 -14 -5h-665c-6 0 -10.667 1.66699 -14 5l-101 101c-4 4 -6 9 -6 15v365c0 6.66699 2 11.667 6 15l101 100
c3.33301 3.33301 8 5 14 5h602c5.33301 0 10 -1.66699 14 -5l65 -63c4 -3.33301 6 -8 6 -14v-39c0 -7.33301 -2.5 -12.333 -7.5 -15s-9.16699 -4 -12.5 -4c-13.333 0 -20 6.33301 -20 19v31l-53 50h-585l-90 -89v-348l90 -89h647l58 58v81l-22 22h-442v-23
c0 -7.33301 -2.5 -12.333 -7.5 -15s-9.16699 -4 -12.5 -4c-13.333 0 -20 6.33301 -20 19v82c0 7.33301 2.5 12.333 7.5 15s9.16699 4 12.5 4c13.333 0 20 -6.33301 20 -19v-19h451c6 0 10.667 -1.66699 14 -5l34 -34c3.33301 -3.33301 5 -8 5 -14v-96z" />
    <glyph glyph-name="H" unicode="H" horiz-adv-x="820" 
d="M152 238h574v350c0 7.33301 2.5 12.333 7.5 15s9.16699 4 12.5 4c13.333 0 20 -6.33301 20 -19v-574c0 -7.33301 -2.5 -12.333 -7.5 -15s-9.16699 -4 -12.5 -4c-13.333 0 -20 6.33301 -20 19v184h-574v-184c0 -7.33301 -2.5 -12.333 -7.5 -15s-9.16699 -4 -12.5 -4
c-13.333 0 -20 6.33301 -20 19v184h-57c-7.33301 0 -12.333 2.5 -15 7.5s-4 9.16699 -4 12.5c0 13.333 6.33301 20 19 20h57v350c0 7.33301 2.5 12.333 7.5 15s9.16699 4 12.5 4c13.333 0 20 -6.33301 20 -19v-350z" />
    <glyph glyph-name="I" unicode="I" horiz-adv-x="798" 
d="M398 568v-534h328c8 0 13.333 -2.5 16 -7.5s4 -9.16699 4 -12.5c0 -13.333 -6.66699 -20 -20 -20h-652c-8 0 -13.333 2.5 -16 7.5s-4 9.16699 -4 12.5c0 13.333 6.66699 20 20 20h284v534h-292c-7.33301 0 -12.333 2.5 -15 7.5s-4 9.16699 -4 12.5
c0 13.333 6.33301 20 19 20h660c8 0 13.333 -2.5 16 -7.5s4 -9.16699 4 -12.5c0 -13.333 -6.66699 -20 -20 -20h-328z" />
    <glyph glyph-name="J" unicode="J" horiz-adv-x="694" 
d="M650 588v-468c0 -5.33301 -2 -10 -6 -14l-105 -106c-3.33301 -4 -8 -6 -14 -6h-356c-6 0 -11 2 -15 6l-105 106c-4 3.33301 -6 8 -6 14v197c0 7.33301 2.5 12.333 7.5 15s9.16699 4 12.5 4c13.333 0 20 -6.33301 20 -19v-188l95 -95h338l94 95v459
c0 7.33301 2.5 12.333 7.5 15s9.16699 4 12.5 4c13.333 0 20 -6.33301 20 -19z" />
    <glyph glyph-name="K" unicode="K" horiz-adv-x="710" 
d="M359 273l-272 -273.001c-4 -4 -8.66699 -6 -14 -6s-10 1.66699 -14 5s-6 8.33301 -6 15v574c0 7.33301 2.5 12.333 7.5 15s9.16699 4 12.5 4c13.333 0 20 -6.33301 20 -19v-525l538 539c4 4 8.66699 6 14 6c6 0 11 -2 15 -6s6 -9 6 -15c0 -4.66699 -2 -9 -6 -13
l-272 -272l272 -273c4 -4 6 -8.66699 6 -14s-2.16699 -10.166 -6.5 -14.499s-9.5 -6.5 -15.5 -6.5c-4.66699 0 -9 2 -13 6z" />
    <glyph glyph-name="L" unicode="L" horiz-adv-x="705" 
d="M92 588v-554h549c7.33301 0 12.333 -2.5 15 -7.5s4 -9.16699 4 -12.5c0 -13.333 -6.33301 -20 -19 -20h-569c-13.333 0 -20 6.66699 -20 20v574c0 7.33301 2.5 12.333 7.5 15s9.16699 4 12.5 4c13.333 0 20 -6.33301 20 -19z" />
    <glyph glyph-name="M" unicode="M" horiz-adv-x="1115" 
d="M62 14l0.000976562 574c0 13.333 6.66699 20 20 20c5.33301 0 10 -2 14 -6l465 -464h8l465 464c4 4 8.66699 6 14 6c6 0 11 -1.66699 15 -5s6 -8.33301 6 -15v-574c0 -7.33301 -2.5 -12.333 -7.5 -15s-9.16699 -4 -12.5 -4c-13.333 0 -20 6.33301 -20 19v525l-437 -436
c-4 -3.33301 -8.66699 -5 -14 -5h-26c-6.66699 0 -11.334 1.66699 -14.001 5l-436 436v-525c0 -7.33301 -2.5 -12.333 -7.5 -15s-9.16699 -4 -12.5 -4c-13.333 0 -20 6.33301 -20 19z" />
    <glyph glyph-name="N" unicode="N" horiz-adv-x="706" 
d="M57 14v574c0 13.333 6.66699 20 20 20c5.33301 0 10 -2 14 -6l559 -559c4 -4 6 -8.66699 6 -14c0 -6 -2 -11 -6 -15s-9 -6 -15 -6c-4.66699 0 -9 2 -13 6l-525 525v-525c0 -7.33301 -2.5 -12.333 -7.5 -15s-9.16699 -4 -12.5 -4c-13.333 0 -20 6.33301 -20 19zM663 588
v-574c0 -7.33301 -2.5 -12.333 -7.5 -15s-9.16699 -4 -12.5 -4c-13.333 0 -20 6.33301 -20 19v574c0 7.33301 2.5 12.333 7.5 15s9.16699 4 12.5 4c13.333 0 20 -6.33301 20 -19z" />
    <glyph glyph-name="O" unicode="O" horiz-adv-x="991" 
d="M62 497l106 105c4 4 8.66699 6 14 6h629c6 0 11 -2 15 -6l103 -106c3.33301 -4 5 -8.66699 5 -14v-362c0 -6 -2 -10.667 -6 -14l-110 -106c-5.33301 -4 -10 -6 -14 -6h-622c-6.66699 0 -11.667 2 -15 6l-105 106c-3.33301 3.33301 -5 8 -5 14v362c0 6 1.66699 11 5 15z
M97 129l93 -95h606l98 94v346l-91 94h-612l-94 -94v-345z" />
    <glyph glyph-name="P" unicode="P" horiz-adv-x="885" 
d="M80 196c-7.33301 0 -12.333 2.5 -15 7.5s-4 9.16699 -4 12.5c0 13.333 6.33301 20 19 20h57v316c0 6 1.66699 10.667 5 14l36 36c4 4 9 6 15 6h525c6 0 11 -2 15 -6l105 -105c4 -4 6 -9 6 -15v-160c0 -6 -2 -11 -6 -15l-105 -105c-4 -4 -9 -6 -15 -6h-541v-182
c0 -7.33301 -2.5 -12.333 -7.5 -15s-9.16699 -4 -12.5 -4c-13.333 0 -20 6.33301 -20 19v182h-57zM177 236h533l94 94v144l-94 94h-508l-25 -25v-307z" />
    <glyph glyph-name="Q" unicode="Q" horiz-adv-x="1004" 
d="M883 54l88 -88c4 -4 6 -8.33301 6 -13c0 -6 -2 -11 -6 -15s-9 -6 -15 -6c-5.33301 0 -10 2 -14 6l-88 87l-24 -25c-4 -4 -9 -6 -15 -6h-624c-4.66699 0 -9 2 -13 6l-106 103c-4 3.33301 -6 8.33301 -6 15v364c0 6.66699 1.66699 11.667 5 15l106 105c4 4 8.66699 6 14 6
h597c5.33301 0 10 -2 14 -6l136 -134c3.33301 -3.33301 5 -8 5 -14v-332c0 -5.33301 -1.66699 -10 -5 -14zM826 53l-80 78h-128c-7.33301 0 -12.333 2.5 -15 7.5s-4 9.16699 -4 12.5c0 13.333 6.33301 20 19 20h137c6 0 11 -1.66699 15 -5l84 -84l49 49v314l-124 123h-579
l-94 -94v-348l93 -92h607z" />
    <glyph glyph-name="R" unicode="R" horiz-adv-x="909" 
d="M114 517c0 6.66699 1.66699 11.333 5 14l72 71c5.33301 4 10.333 6 15 6h524c6 0 10.667 -2 14 -6l105 -105c3.33301 -4 5 -9 5 -15v-200c0 -6.66699 -1.66699 -11.334 -5 -14.001l-104 -103c-5.33301 -4 -10.333 -6 -15 -6h-12l131 -130c4 -4 6 -8.66699 6 -14
s-2.16699 -10.166 -6.5 -14.499s-9.5 -6.5 -15.5 -6.5c-4.66699 0 -9 2 -13 6l-159 159h-507v-145c0 -7.33301 -2.5 -12.333 -7.5 -15s-9.16699 -4 -12.5 -4c-13.333 0 -20 6.33301 -20 19v145h-48c-7.33301 0 -12.333 2.5 -15 7.5s-4 9.16699 -4 12.5
c0 13.333 6.33301 20 19 20h48v318zM154 198.999h513h7h48l92 92v183l-93 94h-507l-60 -60v-309z" />
    <glyph glyph-name="S" unicode="S" horiz-adv-x="845" 
d="M98 192v-99l58 -59h542l60 61v148l-56 56h-588c-4 0 -8.66699 2 -14 6l-36 35c-4 3.33301 -6 8 -6 14v164c0 6.66699 1.66699 11.667 5 15l70 69c4 4 8.66699 6 14 6h562c5.33301 0 10 -2 14 -6l72 -72c4 -3.33301 6 -8 6 -14v-96c0 -7.33301 -2.5 -12.333 -7.5 -15
s-9.16699 -4 -12.5 -4c-13.333 0 -20 6.33301 -20 19v87l-61 61h-544l-58 -58v-148l24 -23h588c6 0 11 -1.66699 15 -5l68 -68c3.33301 -2.66699 5 -7.33398 5 -14.001v-166c0 -5.33301 -1.66699 -10 -5 -14l-71 -72c-3.33301 -4 -8.33301 -6 -15 -6h-560
c-5.33301 0 -10 2 -14 6l-70 70c-3.33301 2.66699 -5 7.33398 -5 14.001v108c0 7.33301 2.5 12.333 7.5 15s9.16699 4 12.5 4c13.333 0 20 -6.33301 20 -19z" />
    <glyph glyph-name="T" unicode="T" horiz-adv-x="825" 
d="M400 568h-316c-7.33301 0 -12.333 2.5 -15 7.5s-4 9.16699 -4 12.5c0 13.333 6.33301 20 19 20h672c7.33301 0 12.333 -2.5 15 -7.5s4 -9.16699 4 -12.5c0 -13.333 -6.33301 -20 -19 -20h-316v-554c0 -7.33301 -2.5 -12.333 -7.5 -15s-9.16699 -4 -12.5 -4
c-13.333 0 -20 6.33301 -20 19v554z" />
    <glyph glyph-name="U" unicode="U" horiz-adv-x="782" 
d="M730 588v-470c0 -7.33301 -1.66699 -12.333 -5 -15l-104 -103c-5.33301 -4 -10.333 -6 -15 -6h-425c-4.66699 0 -9.66699 2 -15 6l-104 103c-3.33301 3.33301 -5 8.33301 -5 15v470c0 7.33301 2.5 12.333 7.5 15s9.16699 4 12.5 4c13.333 0 20 -6.33301 20 -19v-462
l93 -92h408l92 92v462c0 7.33301 2.5 12.333 7.5 15s9.16699 4 12.5 4c13.333 0 20 -6.33301 20 -19z" />
    <glyph glyph-name="V" unicode="V" horiz-adv-x="1341" 
d="M101 602l568 -568.001h16l567 568c4 4 8.33301 6 13 6c14 0 21 -7.33301 21 -22c0 -4.66699 -1.66699 -8.66699 -5 -12l-573 -574c-3.33301 -4 -8 -6 -14 -6h-34c-6 0 -10.667 2 -14 6l-574 574c-4 4 -6 8.66699 -6 14c0 4.66699 2 9.33398 6 14.001s8.66699 7 14 7
s10.333 -2.33301 15 -7z" />
    <glyph glyph-name="W" unicode="W" horiz-adv-x="1081" 
d="M70 588v-525l438 439c4 3.33301 8.66699 5 14 5h23c6 0 10.667 -1.66699 14 -5l438 -439v525c0 7.33301 2.5 12.333 7.5 15s9.16699 4 12.5 4c13.333 0 20 -6.33301 20 -19v-574c0 -13.333 -7 -20 -21 -20c-5.33301 0 -10 2 -14 6l-466 467h-5l-467 -467
c-4 -4 -8.66699 -6 -14 -6c-13.333 0 -20 6.66699 -20 20v574c0 7.33301 2.5 12.333 7.5 15s9.16699 4 12.5 4c13.333 0 20 -6.33301 20 -19z" />
    <glyph glyph-name="X" unicode="X" horiz-adv-x="731" 
d="M343 298l-274.999 276.001c-4 4 -6 8.66699 -6 14s2.16699 10.166 6.5 14.499s9.16602 6.5 14.499 6.5s10 -2.33301 14 -7l275 -276l276 276c4 4 8.66699 6 14 6c6 0 11 -2 15 -6s6 -9 6 -15c0 -4.66699 -2 -9 -6 -13l-276 -276l269 -269c4 -4 6 -8.33301 6 -13
c0 -5.33301 -2.33301 -10.333 -7 -15s-9.66699 -7 -15 -7c-4.66699 0 -9 2 -13 6l-269 269l-269 -269c-4 -4 -8.66699 -6 -14 -6c-6 0 -11 2 -15 6s-6 9 -6 15c0 5.33301 2 10 6 14z" />
    <glyph glyph-name="Y" unicode="Y" horiz-adv-x="839" 
d="M412 230l-9 4.99902l-337 339c-4 4 -6 8.66699 -6 14c0 4.66699 2 9.33398 6 14.001s8.66699 7 14 7s10 -2.33301 14 -7l332 -332h12l332 332c4 4 8.33301 6 13 6c6 0 11 -2 15 -6s6 -9 6 -15c0 -4.66699 -2 -9 -6 -13l-337 -339l-9 -5v-216
c0 -7.33301 -2.5 -12.333 -7.5 -15s-9.16699 -4 -12.5 -4c-13.333 0 -20 6.33301 -20 19v216z" />
    <glyph glyph-name="Z" unicode="Z" horiz-adv-x="738" 
d="M96 608h566c14 0 21 -6.66699 21 -20c0 -5.33301 -2 -10 -6 -14l-540 -540h525c8 0 13.333 -2.5 16 -7.5s4 -9.16699 4 -12.5c0 -13.333 -6.66699 -20 -20 -20h-574c-13.333 0 -20 7 -20 21c0 5.33301 2 10 6 14l540 539h-518c-7.33301 0 -12.333 2.5 -15 7.5
s-4 9.16699 -4 12.5c0 13.333 6.33301 20 19 20z" />
    <glyph glyph-name="bracketleft" unicode="[" horiz-adv-x="386" 
d="M319 630h-215v-724h213c7.33301 0 12.333 -2.5 15 -7.5s4 -9.16699 4 -12.5c0 -13.333 -6.33301 -20 -19 -20h-233c-13.333 0 -20 6.66699 -20 20v764c0 13.333 6.66699 20 20 20h235c8 0 13.333 -2.5 16 -7.5s4 -9.16699 4 -12.5c0 -13.333 -6.66699 -20 -20 -20z" />
    <glyph glyph-name="backslash" unicode="\" horiz-adv-x="906" 
d="M96 665l766 -766c4 -4 6 -8.66699 6 -14s-2.16699 -10.166 -6.5 -14.499s-9.5 -6.5 -15.5 -6.5c-4.66699 0 -9 2 -13 6l-766 766c-4 4 -6 8.66699 -6 14s2.16699 10.166 6.5 14.499s9.5 6.5 15.5 6.5c4.66699 0 9 -2 13 -6z" />
    <glyph glyph-name="bracketright" unicode="]" horiz-adv-x="339" 
d="M50 670h236c13.333 0 20 -6.66699 20 -20v-764c0 -13.333 -6.66699 -20 -20 -20h-233c-8 0 -13.333 2.5 -16 7.5s-4 9.16699 -4 12.5c0 13.333 6.66699 20 20 20h213v724h-216c-7.33301 0 -12.333 2.5 -15 7.5s-4 9.16699 -4 12.5c0 13.333 6.33301 20 19 20z" />
    <glyph glyph-name="asciicircum" unicode="^" horiz-adv-x="218" 
d="M24 466l74 73c4.66699 4.66699 9.66699 7 15 7c4.66699 0 9 -2.33301 13 -7l74 -73c4 -4 6 -8.66699 6 -14c0 -6 -2 -11 -6 -15s-9 -6 -15 -6c-5.33301 0 -10 2 -14 6l-59 59l-59 -59c-4 -4 -8.66699 -6 -14 -6c-6 0 -11 2 -15 6s-6 9 -6 15c0 5.33301 2 10 6 14z" />
    <glyph glyph-name="underscore" unicode="_" horiz-adv-x="931" 
d="M0 -113h931c8 0 13.333 -2.5 16 -7.5s4 -9.16699 4 -12.5c0 -13.333 -6.66699 -20 -20 -20h-931c-7.33301 0 -12.333 2.5 -15 7.5s-4 9.16699 -4 12.5c0 13.333 6.33301 20 19 20z" />
    <glyph glyph-name="grave" unicode="`" horiz-adv-x="148" 
d="M44 575l83 -82.999c4 -4 6 -8.66699 6 -14c0 -6 -2 -11 -6 -15s-9 -6 -15 -6c-5.33301 0 -10 2 -14 6l-83 83c-4 4 -6 8.66699 -6 14s2.16699 10.166 6.5 14.499s9.5 6.5 15.5 6.5c4.66699 0 9 -2 13 -6z" />
    <glyph glyph-name="a" unicode="a" 
d="M215 207l258 258.999c3.33301 3.33301 8 5 14 5h34c6 0 10.667 -1.66699 14 -5l436 -437c4 -4 6 -8.66699 6 -14s-2.16699 -10.166 -6.5 -14.499s-9.5 -6.5 -15.5 -6.5c-4.66699 0 -9 2 -13 6l-167 167h-542l-167 -167c-4 -4 -8.66699 -6 -14 -6c-6 0 -11 2 -15 6
s-6 9 -6 15c0 5.33301 2 10 6 14l138 138h-55c-7.33301 0 -12.333 2.5 -15 7.5s-4 9.16699 -4 12.5c0 13.333 6.33301 20 19 20h95zM735 206.999l-223 224h-16l-223 -224h462z" />
    <glyph glyph-name="b" unicode="b" horiz-adv-x="792" 
d="M110 167h-50c-7.33301 0 -12.333 2.5 -15 7.5s-4 9.16699 -4 12.5c0 13.333 6.33301 20 19 20h50v177c0 6 1.66699 10.667 5 14l67 68c3.33301 3.33301 8 5 14 5h400c6 0 10.667 -1.66699 14 -5l98 -97c4 -3.33301 6 -8.33301 6 -15v-156l28 -29
c3.33301 -4 5 -8.66699 5 -14v-71c0 -6 -1.66699 -10.667 -5 -14l-71 -70c-5.33301 -4 -10 -6 -14 -6h-527c-13.333 0 -20 6.66699 -20 20v153zM150 207h524v139l-87 85h-382l-55 -56v-168zM688 167h-538v-133h498l59 59v54z" />
    <glyph glyph-name="c" unicode="c" horiz-adv-x="835" 
d="M694 350v28l-55 53h-449l-90 -89v-216l92 -92h478l91 92v30c0 7.33301 2.5 12.333 7.5 15s9.16699 4 12.5 4c13.333 0 20 -6.33301 20 -19v-38c0 -4.66699 -2 -9.66699 -6 -15l-102 -103c-3.33301 -4 -8.33301 -6 -15 -6h-495c-5.33301 0 -10 2 -14 6l-103 103
c-4 4 -6 9 -6 15v232c0 6 2 11 6 15l100 101c4 3.33301 9 5 15 5h467c6 0 10.667 -1.66699 14 -5l66 -65c4 -3.33301 6 -8.33301 6 -15v-36c0 -7.33301 -2.5 -12.333 -7.5 -15s-9.16699 -4 -12.5 -4c-13.333 0 -20 6.33301 -20 19z" />
    <glyph glyph-name="d" unicode="d" horiz-adv-x="698" 
d="M42 14v405.999c0 6.66699 1.66699 11.334 5 14.001l34 34c4 4 8.66699 6 14 6h427c4 0 8.66699 -2 14 -6l106 -103c4 -4 6 -9 6 -15v-230c0 -6 -2 -10.667 -6 -14l-106 -106c-5.33301 -4 -10 -6 -14 -6h-460c-13.333 0 -20 6.66699 -20 20zM513 33.999l95 95v213l-94 92
h-410l-22 -23v-377h431z" />
    <glyph glyph-name="e" unicode="e" horiz-adv-x="725" 
d="M92 205v213c0 6 2 11 6 15l34 33c4 3.33301 8.66699 5 14 5h535c7.33301 0 12.333 -2.5 15 -7.5s4 -9.16699 4 -12.5c0 -13.333 -6.33301 -20 -19 -20h-527l-22 -21v-205h412c7.33301 0 12.333 -2.5 15 -7.5s4 -9.16699 4 -12.5c0 -13.333 -6.33301 -20 -19 -20h-412
v-131h544c7.33301 0 12.333 -2.5 15 -7.5s4 -9.16699 4 -12.5c0 -13.333 -6.33301 -20 -19 -20h-564c-13.333 0 -20 6.66699 -20 20v151h-52c-7.33301 0 -12.333 2.5 -15 7.5s-4 9.16699 -4 12.5c0 13.333 6.33301 20 19 20h52z" />
    <glyph glyph-name="f" unicode="f" horiz-adv-x="627" 
d="M93 165h-52c-8 0 -13.333 2.5 -16 7.5s-4 9.16699 -4 12.5c0 13.333 6.66699 20 20 20h52v213c0 6.66699 2 11.667 6 15l34 33c4 3.33301 8.33301 5 13 5h536c7.33301 0 12.333 -2.5 15 -7.5s4 -9.16699 4 -12.5c0 -13.333 -6.33301 -20 -19 -20h-528l-21 -21v-205h412
c7.33301 0 12.333 -2.5 15 -7.5s4 -9.16699 4 -12.5c0 -13.333 -6.33301 -20 -19 -20h-412v-151c0 -7.33301 -2.5 -12.333 -7.5 -15s-9.16699 -4 -12.5 -4c-13.333 0 -20 6.33301 -20 19v151z" />
    <glyph glyph-name="g" unicode="g" horiz-adv-x="838" 
d="M791 89v-7v-146c0 -7.33301 -2.5 -12.333 -7.5 -15s-9.16699 -4 -12.5 -4c-13.333 0 -20 6.33301 -20 19v102l-37 -38c-4 -4 -9 -6 -15 -6h-524c-6 0 -10.667 2 -14 6l-107 108c-4 5.33301 -6 10 -6 14v222c0 6 2 10.667 6 14l108 108c3.33301 3.33301 8 5 14 5h462
c5.33301 0 10 -1.66699 14 -5l64 -64c4 -3.33301 6 -8 6 -14v-38c0 -7.33301 -2.5 -12.333 -7.5 -15s-9.16699 -4 -12.5 -4c-13.333 0 -20 6.33301 -20 19v29l-53 52h-444l-97 -96v-204l96 -97h506l61 61v49l-24 23h-439v-7c0 -7.33301 -2.5 -12.333 -7.5 -15
s-9.16699 -4 -12.5 -4c-13.333 0 -20 6.33301 -20 19v22v10v19c0 8 2.5 13.333 7.5 16s9.16699 4 12.5 4c13.333 0 20 -6.66699 20 -20v-4h447c5.33301 0 10 -1.66699 14 -5l36 -36c4 -3.33301 6 -8 6 -14v-63z" />
    <glyph glyph-name="h" unicode="h" horiz-adv-x="689" 
d="M138 207h460v244c0 8 2.5 13.333 7.5 16s9.16699 4 12.5 4c13.333 0 20 -6.66699 20 -20v-437c0 -7.33301 -2.5 -12.333 -7.5 -15s-9.16699 -4 -12.5 -4c-13.333 0 -20 6.33301 -20 19v153h-460v-153c0 -7.33301 -2.5 -12.333 -7.5 -15s-9.16699 -4 -12.5 -4
c-13.333 0 -20 6.33301 -20 19v153h-25c-8 0 -13.333 2.5 -16 7.5s-4 9.16699 -4 12.5c0 13.333 6.66699 20 20 20h25v244c0 8 2.5 13.333 7.5 16s9.16699 4 12.5 4c13.333 0 20 -6.66699 20 -20v-244z" />
    <glyph glyph-name="i" unicode="i" horiz-adv-x="565" 
d="M307 431v-397h177c7.33301 0 12.333 -2.5 15 -7.5s4 -9.16699 4 -12.5c0 -13.333 -6.33301 -20 -19 -20h-398c-8 0 -13.333 2.5 -16 7.5s-4 9.16699 -4 12.5c0 13.333 6.66699 20 20 20h181v397h-184c-7.33301 0 -12.333 2.5 -15 7.5s-4 9.16699 -4 12.5
c0 13.333 6.33301 20 19 20h406c7.33301 0 12.333 -2.5 15 -7.5s4 -9.16699 4 -12.5c0 -13.333 -6.33301 -20 -19 -20h-182z" />
    <glyph glyph-name="j" unicode="j" horiz-adv-x="573" 
d="M96 254v-123l96 -97h203l93 95v322c0 8 2.5 13.333 7.5 16s9.16699 4 12.5 4c13.333 0 20 -6.66699 20 -20v-331c0 -5.33301 -2 -10 -6 -14l-104 -106c-3.33301 -4 -8 -6 -14 -6h-221c-6 0 -10.667 2 -14 6l-107 108c-4 5.33301 -6 10 -6 14v132c0 8 2.5 13.333 7.5 16
s9.16699 4 12.5 4c13.333 0 20 -6.66699 20 -20z" />
    <glyph glyph-name="k" unicode="k" horiz-adv-x="580" 
d="M292 206l-204.999 -206c-4 -4 -8.66699 -6 -14 -6s-10 1.66699 -14 5s-6 8.33301 -6 15v437c0 8 2.5 13.333 7.5 16s9.16699 4 12.5 4c13.333 0 20 -6.66699 20 -20v-388l401 403c4 4 8.66699 6 14 6s10.166 -2.16699 14.499 -6.5s6.5 -9.5 6.5 -15.5
c0 -4.66699 -2 -9 -6 -13l-202 -203l205 -205c4 -4 6 -8.33301 6 -13c0 -5.33301 -2.33301 -10.333 -7 -15s-9.66699 -7 -15 -7c-4.66699 0 -9 2 -13 6z" />
    <glyph glyph-name="l" unicode="l" horiz-adv-x="554" 
d="M83 451v-417h415c7.33301 0 12.333 -2.5 15 -7.5s4 -9.16699 4 -12.5c0 -13.333 -6.33301 -20 -19 -20h-435c-13.333 0 -20 6.66699 -20 20v437c0 8 2.5 13.333 7.5 16s9.16699 4 12.5 4c13.333 0 20 -6.66699 20 -20z" />
    <glyph glyph-name="m" unicode="m" horiz-adv-x="842" 
d="M58 14v437c0 14 6.66699 21 20 21c5.33301 0 10 -2 14 -6l329 -328h14l329 328c4 4 8.66699 6 14 6c13.333 0 20 -7 20 -21v-437c0 -7.33301 -2.5 -12.333 -7.5 -15s-9.16699 -4 -12.5 -4c-13.333 0 -20 6.33301 -20 19v388l-300 -299c-3.33301 -3.33301 -8 -5 -14 -5
h-32c-6 0 -10.667 1.66699 -14 5l-300 299v-388c0 -7.33301 -2.5 -12.333 -7.5 -15s-9.16699 -4 -12.5 -4c-13.333 0 -20 6.33301 -20 19z" />
    <glyph glyph-name="n" unicode="n" horiz-adv-x="590" 
d="M62 14v437c0 14 7 21 21 21c5.33301 0 10 -2 14 -6l401 -403v388c0 8 2.5 13.333 7.5 16s9.16699 4 12.5 4c13.333 0 20 -6.66699 20 -20v-437c0 -13.333 -6.66699 -20 -20 -20c-5.33301 0 -10 2 -14 6l-402 402v-388c0 -7.33301 -2.5 -12.333 -7.5 -15
s-9.16699 -4 -12.5 -4c-13.333 0 -20 6.33301 -20 19z" />
    <glyph glyph-name="o" unicode="o" horiz-adv-x="838" 
d="M163 0l-105 106c-4 3.33301 -6 8 -6 14v234c0 5.33301 2 10 6 14l97 98c4 3.33301 9 5 15 5h504c5.33301 0 10 -1.66699 14 -5l104 -104c4 -4 6 -9 6 -15v-225c0 -5.33301 -2 -10 -6 -14l-108 -108c-4 -4 -8.66699 -6 -14 -6h-492c-6 0 -11 2 -15 6zM661 34l97 97v207
l-93 93h-487l-86 -86v-216l94 -95h475z" />
    <glyph glyph-name="p" unicode="p" horiz-adv-x="764" 
d="M62 129c-8 0 -13.333 2.5 -16 7.5s-4 9.16699 -4 12.5c0 13.333 6.66699 20 20 20h49v245c0 5.33301 2.33301 10 7 14l38 38c4 3.33301 8.66699 5 14 5h460c6 0 11 -1.66699 15 -5l67 -68c4 -3.33301 6 -8 6 -14v-166c0 -6 -2 -10.667 -6 -14l-70 -70
c-4 -3.33301 -9 -5 -15 -5h-476v-115c0 -7.33301 -2.5 -12.333 -7.5 -15s-9.16699 -4 -12.5 -4c-13.333 0 -20 6.33301 -20 19v115h-49zM151 169h467l60 58v148l-56 56h-444l-27 -25v-237z" />
    <glyph glyph-name="q" unicode="q" horiz-adv-x="844" 
d="M733 82l53 -53c4 -4 6 -8.33301 6 -13c0 -5.33301 -2.33301 -10.333 -7 -15s-9.66699 -7 -15 -7c-4.66699 0 -9 2 -13 6l-53 54l-55 -54c-5.33301 -4 -10.333 -6 -15 -6h-458c-6 0 -10.667 2 -14 6l-106 106c-4 3.33301 -6 8 -6 14v230c0 6 2 10.667 6 14l103 102
c4 3.33301 9 5 15 5h496c6 0 11 -1.66699 15 -5l103 -104c4 -3.33301 6 -8 6 -14v-197c0 -6 -2 -10.667 -6 -14zM675 83l-47 48h-128c-7.33301 0 -12.333 2.5 -15 7.5s-4 9.16699 -4 12.5c0 13.333 6.33301 20 19 20h137c6 0 10.667 -1.66699 14 -5l53 -54l50 48v179l-92 92
h-480l-92 -90v-212l95 -95h441z" />
    <glyph glyph-name="r" unicode="r" horiz-adv-x="754" 
d="M54 131c-8 0 -13.333 2.5 -16 7.5s-4 9.16699 -4 12.5c0 13.333 6.66699 20 20 20h40v247c0 6 1.66699 10.667 5 14l34 34c4 3.33301 8.66699 5 14 5h467c6 0 11 -1.66699 15 -5l65 -65c4 -3.33301 6 -8.33301 6 -15v-168c0 -6 -2 -10.667 -6 -14l-68 -67
c-4 -4 -8.66699 -6 -14 -6h-19l102 -102c4 -4 6 -8.66699 6 -14c0 -6 -2 -11 -6 -15s-9 -6 -15 -6c-5.33301 0 -10 2 -14 6l-131 131h-401v-117c0 -7.33301 -2.5 -12.333 -7.5 -15s-9.16699 -4 -12.5 -4c-13.333 0 -20 6.33301 -20 19v117h-40zM134 171h408h6h55l57 56v151
l-54 53h-450l-22 -22v-238z" />
    <glyph glyph-name="s" unicode="s" horiz-adv-x="690" 
d="M83 120v-30l57 -56h410l60 61v79l-59 58h-451c-4 0 -8.66699 2 -14 6l-36 36c-4.66699 4 -7 8.66699 -7 14v97c0 6 2 10.667 6 14l67 67c4 3.33301 8.66699 5 14 5h430c6 0 10.667 -1.66699 14 -5l70 -69c4 -3.33301 6 -8.33301 6 -15v-32
c0 -7.33301 -2.5 -12.333 -7.5 -15s-9.16699 -4 -12.5 -4c-13.333 0 -20 6.33301 -20 19v24l-59 57h-412l-56 -55v-80l25 -24h452c5.33301 0 10 -2 14 -6l70 -68c4 -3.33301 6 -8.33301 6 -15v-97c0 -4 -2 -8.66699 -6 -14l-71 -72c-3.33301 -4 -8.33301 -6 -15 -6h-427
c-4 0 -8.66699 2 -14 6l-68 67c-4 3.33301 -6 8.33301 -6 15v38c0 7.33301 2.5 12.333 7.5 15s9.16699 4 12.5 4c13.333 0 20 -6.33301 20 -19z" />
    <glyph glyph-name="t" unicode="t" horiz-adv-x="666" 
d="M318 431h-249c-8 0 -13.333 2.5 -16 7.5s-4 9.16699 -4 12.5c0 13.333 6.66699 20 20 20h533c7.33301 0 12.333 -2.5 15 -7.5s4 -9.16699 4 -12.5c0 -13.333 -6.33301 -20 -19 -20h-244v-417c0 -7.33301 -2.5 -12.333 -7.5 -15s-9.16699 -4 -12.5 -4
c-13.333 0 -20 6.33301 -20 19v417z" />
    <glyph glyph-name="u" unicode="u" horiz-adv-x="639" 
d="M94 451v-325l92 -92h272l98 97v320c0 8 2.5 13.333 7.5 16s9.16699 4 12.5 4c13.333 0 20 -6.66699 20 -20v-329c0 -6 -2 -10.667 -6 -14l-108 -108c-5.33301 -4 -10.333 -6 -15 -6h-289c-6 0 -11 2 -15 6l-103 103c-4 4 -6 9 -6 15v333c0 8 2.5 13.333 7.5 16
s9.16699 4 12.5 4c13.333 0 20 -6.66699 20 -20z" />
    <glyph glyph-name="v" unicode="v" horiz-adv-x="1046" 
d="M94 466l432.001 -432h11l431 432c4 4 8.66699 6 14 6s10.166 -2.16699 14.499 -6.5s6.5 -9.5 6.5 -15.5c0 -4.66699 -2 -9 -6 -13l-437 -437c-4 -4 -8.66699 -6 -14 -6h-28c-4.66699 0 -9.66699 2 -15 6l-437 437c-4 4 -6 8.33301 -6 13c0 14 7.33301 21 22 21
c4.66699 0 8.66699 -1.66699 12 -5z" />
    <glyph glyph-name="w" unicode="w" horiz-adv-x="984" 
d="M98 451v-388l369 369c4 4 9 6 15 6h28c6 0 11 -2 15 -6l369 -369v388c0 8 2.5 13.333 7.5 16s9.16699 4 12.5 4c13.333 0 20 -6.66699 20 -20v-437c0 -13.333 -7 -20 -21 -20c-5.33301 0 -10 2 -14 6l-397 398h-12l-397 -398c-4 -4 -8.66699 -6 -14 -6
c-6 0 -11 1.66699 -15 5s-6 8.33301 -6 15v437c0 8 2.5 13.333 7.5 16s9.16699 4 12.5 4c13.333 0 20 -6.66699 20 -20z" />
    <glyph glyph-name="x" unicode="x" horiz-adv-x="565" 
d="M307 231l203.001 -202.001c4 -4 6 -8.66699 6 -14s-2.16699 -10.166 -6.5 -14.499s-9.5 -6.5 -15.5 -6.5c-4.66699 0 -9 2 -13 6l-203 202l-202 -202c-4 -4 -8.66699 -6 -14 -6c-6 0 -11 2 -15 6s-6 9 -6 15c0 5.33301 2 10 6 14l203 202l-206 206c-4 4 -6 8.66699 -6 14
c0 6 2 11 6 15s9 6 15 6c5.33301 0 10 -2 14 -6l205 -206l206 206c4 4 8.66699 6 14 6s10.166 -2.16699 14.499 -6.5s6.5 -9.5 6.5 -15.5c0 -4.66699 -2 -9 -6 -13z" />
    <glyph glyph-name="y" unicode="y" horiz-adv-x="684" 
d="M327 166l-7.99805 4l-267 267c-4 4 -6 8.33301 -6 13c0 14 7.33301 21 22 21c5.33301 0 9.66602 -1.66699 12.999 -5l261 -261h9l261 261c4 4 8.66699 6 14 6s10.166 -2.16699 14.499 -6.5s6.5 -9.5 6.5 -15.5c0 -4.66699 -2 -9 -6 -13l-267 -267l-7 -4v-152
c0 -7.33301 -2.5 -12.333 -7.5 -15s-9.16699 -4 -12.5 -4c-13.333 0 -20 6.33301 -20 19v152z" />
    <glyph glyph-name="z" unicode="z" horiz-adv-x="566" 
d="M65 471h437c13.333 0 20 -6.66699 20 -20c0 -5.33301 -2 -10 -6 -14l-402 -403h388c7.33301 0 12.333 -2.5 15 -7.5s4 -9.16699 4 -12.5c0 -13.333 -6.33301 -20 -19 -20h-437c-14 0 -21 7 -21 21c0 5.33301 2 10 6 14l403 402h-388c-8 0 -13.333 2.5 -16 7.5
s-4 9.16699 -4 12.5c0 13.333 6.66699 20 20 20z" />
    <glyph glyph-name="braceleft" unicode="{" horiz-adv-x="258" 
d="M212 633l-27 0.000976562l-56 -56v-224c0 -4 -2 -8.66699 -6 -14l-53 -55l52 -51c4.66699 -4 7 -9 7 -15v-256l55 -57h28c7.33301 0 12.333 -2.5 15 -7.5s4 -9.16699 4 -12.5c0 -13.333 -6.33301 -20 -19 -20h-36c-6 0 -10.667 2 -14 6l-68 70
c-3.33301 4 -5 8.33301 -5 13v256l-61 59c-4.66699 4.66699 -7 9.66699 -7 15c0 3.33301 2 7.66602 6 12.999l62 64v225c0 5.33301 1.66699 10 5 14l68 67c3.33301 4 8 6 14 6h36c7.33301 0 12.333 -2.5 15 -7.5s4 -9.16699 4 -12.5c0 -13.333 -6.33301 -20 -19 -20z" />
    <glyph glyph-name="bar" unicode="|" horiz-adv-x="147" 
d="M97 653v-762c0 -7.33301 -2.5 -12.333 -7.5 -15s-9.16699 -4 -12.5 -4c-13.333 0 -20 6.33301 -20 19v762c0 7.33301 2.5 12.333 7.5 15s9.16699 4 12.5 4c13.333 0 20 -6.33301 20 -19z" />
    <glyph glyph-name="braceright" unicode="}" horiz-adv-x="258" 
d="M40 673h36c6 0 10.667 -2 14 -6l68 -67c3.33301 -4 5 -8.66699 5 -14v-225l62 -64c4 -4 6 -9 6 -15c0 -4.66699 -2.33301 -9 -7 -13l-61 -59v-256c0 -4.66699 -1.66699 -9 -5 -13l-68 -70c-3.33301 -4 -8 -6 -14 -6h-36c-7.33301 0 -12.333 2.5 -15 7.5
s-4 9.16699 -4 12.5c0 13.333 6.33301 20 19 20h28l55 57v256c0 6 2.33301 11 7 15l52 51l-53 55c-4 5.33301 -6 10 -6 14v224l-56 56h-27c-7.33301 0 -12.333 2.5 -15 7.5s-4 9.16699 -4 12.5c0 13.333 6.33301 20 19 20z" />
    <glyph glyph-name="asciitilde" unicode="~" horiz-adv-x="264" 
d="M14 461l71.999 73c2.66699 3.33301 6.33398 5 11.001 5c2.66699 0 5.66699 -1.66699 9 -5l64 -64l64 64c2.66699 2.66699 5.66699 4 9 4c9.33301 0 14 -5 14 -15c0 -3.33301 -1 -6 -3 -8l-75 -73c-2.66699 -2.66699 -6 -4 -10 -4c-3.33301 0 -6.33301 1.33301 -9 4
l-64 64l-63 -64c-2.66699 -2.66699 -5.66699 -4 -9 -4c-9.33301 0 -14 4.66699 -14 14c0 3.33301 1.33301 6.33301 4 9z" />
    <glyph glyph-name="nonbreakingspace" unicode="&#xa0;" horiz-adv-x="591" 
 />
    <glyph glyph-name="cent" unicode="&#xa2;" horiz-adv-x="691" 
d="M350 608h158c6 0 10.667 -2 14 -6l65 -64c4 -4 6 -9 6 -15v-41c0 -7.33301 -2.5 -12.333 -7.5 -15s-9.16699 -4 -12.5 -4c-13.333 0 -20 6.33301 -20 19v32l-54 54h-149v-534h214l56 56v37c0 8 2.5 13.333 7.5 16s9.16699 4 12.5 4c13.333 0 20 -6.66699 20 -20v-45
c0 -6 -2 -11 -6 -15l-67 -67c-4 -4 -8.66699 -6 -14 -6h-223v-42c0 -7.33301 -2.5 -12.333 -7.5 -15s-9.16699 -4 -12.5 -4c-13.333 0 -20 6.33301 -20 19v42h-163c-5.33301 0 -10 2 -14 6l-108 108c-4 4 -6 8.66699 -6 14v360c0 6 2 11 6 15l105 105c4 4 9 6 15 6h165v47
c0 8 2.5 13.333 7.5 16s9.16699 4 12.5 4c13.333 0 20 -6.66699 20 -20v-47zM310 568h-156l-95 -94v-343l97 -97h154v534z" />
    <glyph glyph-name="dieresis" unicode="&#xa8;" horiz-adv-x="234" 
d="M66 578v-105c0 -8 -2.5 -13.333 -7.5 -16s-9.16699 -4 -12.5 -4c-13.333 0 -20 6.66699 -20 20v105c0 8 2.5 13.333 7.5 16s9.16699 4 12.5 4c13.333 0 20 -6.66699 20 -20zM212 578v-105c0 -8 -2.5 -13.333 -7.5 -16s-9.16699 -4 -12.5 -4c-13.333 0 -20 6.66699 -20 20
v105c0 8 2.5 13.333 7.5 16s9.16699 4 12.5 4c13.333 0 20 -6.66699 20 -20z" />
    <glyph glyph-name="copyright" unicode="&#xa9;" horiz-adv-x="781" 
d="M59 478l105 105c3.33301 4 8 6 14 6h436c6.66699 0 11.667 -2 15 -6l105 -105c3.33301 -4 5 -9 5 -15v-343c0 -6 -1.66699 -10.667 -5 -14l-107 -106c-5.33301 -4 -10 -6 -14 -6h-435c-6 0 -10.667 2 -14 6l-105 106c-3.33301 3.33301 -5 8 -5 14v343
c0 6 1.66699 11 5 15zM94 129l93 -95h417l95 95v325l-93 95h-419l-93 -95v-325zM507 374l0.000976562 22l-41 40h-169l-71 -70v-146l72 -72h192l72 72v23c0 8 2.5 13.333 7.5 16s9.16699 4 12.5 4c13.333 0 20 -6.66699 20 -20v-32c0 -5.33301 -2 -10 -6 -14l-83 -83
c-4 -4 -9 -6 -15 -6h-209c-6 0 -11 2 -15 6l-83 83c-3.33301 3.33301 -5 8 -5 14v163c0 7.33301 1.66699 12.333 5 15l83 81c4 4 8.66699 6 14 6h186c3.33301 0 7.66602 -2 12.999 -6l54 -52c4 -3.33301 6 -8 6 -14v-30c0 -7.33301 -2.5 -12.333 -7.5 -15
s-9.16699 -4 -12.5 -4c-13.333 0 -20 6.33301 -20 19z" />
    <glyph glyph-name="ordfeminine" unicode="&#xaa;" horiz-adv-x="422" 
d="M12 346h362c10 0 15 -5.33301 15 -16s-5 -16 -15 -16h-362c-10 0 -15 5.33301 -15 16s5 16 15 16zM74 495l100.999 101.001c0.666992 0 2.16699 0.833008 4.5 2.5s4.5 2.5 6.5 2.5h14c3.33301 0 5.83301 -0.666992 7.5 -2s2.83398 -2.33301 3.50098 -3l175 -175
c2.66699 -2.66699 4 -6.33398 4 -11.001c0 -10.667 -5.66699 -16 -17 -16c-4 0 -7.33301 1.33301 -10 4l-65 65h-211l-64 -65c-2.66699 -2.66699 -5.66699 -4 -9 -4c-11.333 0 -17 5.66699 -17 17c0 4 1.33301 7.33301 4 10l42 42h-4c-10 0 -15 5.33301 -15 16s5 16 15 16
h35zM265.999 495.001l-72 74l-75 -74h147z" />
    <glyph glyph-name="guillemotleft" unicode="&#xab;" horiz-adv-x="594" 
d="M297 538l-227 -228.001v-16l260 -262c4 -4 6 -8.66699 6 -14s-2.16699 -10.166 -6.5 -14.499s-9.5 -6.5 -15.5 -6.5c-4 0 -8 2 -12 6l-267 267c-3.33301 4 -5 9 -5 15v33c0 6 1.66699 11 5 15l233 233c4 4 8.33301 6 13 6c14 0 21 -7.33301 21 -22
c0 -4.66699 -1.66699 -8.66699 -5 -12zM463 537.999l-227 -228v-16l261 -262c4 -4 6 -8 6 -12c0 -6 -2.33301 -11.333 -7 -16s-10 -7 -16 -7c-4 0 -8 2 -12 6l-266 267c-4 5.33301 -6 10.333 -6 15v33c0 4.66699 2 9.66699 6 15l232 233c4 4 8.66699 6 14 6c6 0 11 -2 15 -6
s6 -9 6 -15c0 -4.66699 -2 -9 -6 -13z" />
    <glyph glyph-name="registered" unicode="&#xae;" horiz-adv-x="781" 
d="M66 477l103 105c4 4.66699 8.66699 7 14 7h439c6 0 11 -2.33301 15 -7l103 -105c4 -5.33301 6 -10 6 -14v-343c0 -5.33301 -2.33301 -10 -7 -14l-110 -106c-5.33301 -4 -10 -6 -14 -6h-434c-6 0 -11 2.33301 -15 7l-100 105c-4 5.33301 -6 10 -6 14v343
c0 4 2 8.66699 6 14zM100 128l89 -94h418l99 94v327l-92 94h-423l-91 -93v-328zM206 429c0 5.33301 1.99902 10 5.99902 14l27 27c4 4 9 6 15 6h269c6 0 11 -2 15 -6l52 -52c4 -4 6 -9 6 -15v-97c0 -6.66699 -2 -11.667 -6 -15l-55 -54c-5.33301 -4 -10 -6 -14 -6h-7l77 -76
c4 -4 6 -8.33301 6 -13c0 -14 -7.33301 -21 -22 -21c-5.33301 0 -9.66602 1.66699 -12.999 5l-105 105h-211v-90c0 -8 -2.5 -13.333 -7.5 -16s-9.16699 -4 -12.5 -4c-13.333 0 -20 6.66699 -20 20v90h-28c-8 0 -13.333 2.5 -16 7.5s-4 9.16699 -4 12.5
c0 13.333 6.66699 20 20 20h28v158zM511.999 271l44 43v80l-42 42h-252l-16 -16v-149h266z" />
    <glyph glyph-name="degree" unicode="&#xb0;" horiz-adv-x="262" 
d="M218 642c14.667 -12 25.998 -27.167 33.998 -45.5s12 -37.166 12 -56.499c0 -32.667 -8.16699 -58.834 -24.5 -78.501s-33.666 -33.5 -51.999 -41.5s-37.166 -12 -56.499 -12c-32.667 0 -63 11.667 -91 35s-42 56 -42 98c0 32 11.833 62.167 35.5 90.5
s56.5 42.5 98.5 42.5c32 0 60.667 -10.667 86 -32zM69.998 470c17.333 -14.667 37.999 -21.999 61.999 -21.999c28.667 0 51.167 9.5 67.5 28.5s24.5 40.5 24.5 64.5c0 29.333 -9.5 52.166 -28.5 68.499s-40.5 24.5 -64.5 24.5c-29.333 0 -52.166 -9.66699 -68.499 -29
s-24.5 -41 -24.5 -65c0 -28.667 10.667 -52 32 -70z" />
    <glyph glyph-name="plusminus" unicode="&#xb1;" horiz-adv-x="528" 
d="M469 53h-403c-8 0 -13.333 2.5 -16 7.5s-4 9.16699 -4 12.5c0 13.333 6.66699 20 20 20h403c7.33301 0 12.333 -2.5 15 -7.5s4 -9.16699 4 -12.5c0 -13.333 -6.33301 -20 -19 -20zM290 373v-218c0 -7.33301 -2.5 -12.333 -7.5 -15s-9.16699 -4 -12.5 -4
c-13.333 0 -20 6.33301 -20 19v218h-184c-8 0 -13.333 2.5 -16 7.5s-4 9.16699 -4 12.5c0 13.333 6.66699 20 20 20h184v179c0 7.33301 2.5 12.333 7.5 15s9.16699 4 12.5 4c13.333 0 20 -6.33301 20 -19v-179h179c7.33301 0 12.333 -2.5 15 -7.5s4 -9.16699 4 -12.5
c0 -13.333 -6.33301 -20 -19 -20h-179z" />
    <glyph glyph-name="acute" unicode="&#xb4;" horiz-adv-x="148" 
d="M127 546l-83.001 -83c-4 -4 -8.66699 -6 -14 -6s-10.166 2.16699 -14.499 6.5s-6.5 9.5 -6.5 15.5c0 4.66699 2 9 6 13l83 83c4 4 8.66699 6 14 6c6 0 11 -2 15 -6s6 -9 6 -15c0 -5.33301 -2 -10 -6 -14z" />
    <glyph glyph-name="mu" unicode="&#xb5;" horiz-adv-x="1230" 
d="M58 29l436.001 437c4 3.33301 9 5 15 5h25c6.66699 0 11.667 -1.66699 15 -5l436 -437c4 -4 6 -8.33301 6 -13c0 -5.33301 -2.33301 -10.333 -7 -15s-9.66699 -7 -15 -7c-4.66699 0 -9 2 -13 6l-430 431h-8l-432 -431c-4 -4 -8.66699 -6 -14 -6
c-4.66699 0 -9.33398 2 -14.001 6s-7 8.66699 -7 14s2.33301 10.333 7 15zM742.001 466l436 -437c4 -4 6 -8.66699 6 -14s-2.16699 -10.166 -6.5 -14.499s-9.5 -6.5 -15.5 -6.5c-4 0 -8 2 -12 6l-436 437c-4 4 -6 8.66699 -6 14s2.16699 10.166 6.5 14.499s9.5 6.5 15.5 6.5
c4 0 8 -2 12 -6z" />
    <glyph glyph-name="paragraph" unicode="&#xb6;" horiz-adv-x="576" 
d="M447 196v-182c0 -7.33301 -2.5 -12.333 -7.5 -15s-9.16699 -4 -12.5 -4c-13.333 0 -20 6.33301 -20 19v182h-56v-182c0 -7.33301 -2.5 -12.333 -7.5 -15s-9.16699 -4 -12.5 -4c-13.333 0 -20 6.33301 -20 19v182h-183c-6 0 -10.667 2 -14 6l-106 105c-4 4 -6 9 -6 15v160
c0 6.66699 2 11.667 6 15l104 103c5.33301 4 10 6 14 6h265c6 0 11 -2 15 -6l36 -36c3.33301 -4 5 -8.66699 5 -14v-314h57c7.33301 0 12.333 -2.5 15 -7.5s4 -9.16699 4 -12.5c0 -13.333 -6.33301 -20 -19 -20h-57zM311 566h-176l-93 -92v-144l95 -94h174v330zM407 541
l-25 25h-31v-330h56v305z" />
    <glyph glyph-name="cedilla" unicode="&#xb8;" horiz-adv-x="143" 
d="M69 34c26 0 47.833 -8.83301 65.5 -26.5s26.5 -39.5 26.5 -65.5c0 -25.333 -9 -47 -27 -65s-39.667 -27 -65 -27s-47 9 -65 27s-27 39.667 -27 65c0 8 2.5 13.333 7.5 16s9.16699 4 12.5 4c13.333 0 20 -6.66699 20 -20c0 -14 5.16699 -26.167 15.5 -36.5
s22.5 -15.5 36.5 -15.5c14.667 0 27 5 37 15s15 22.333 15 37s-5 27 -15 37s-22.333 15 -37 15c-8 0 -13.333 2.5 -16 7.5s-4 9.16699 -4 12.5c0 13.333 6.66699 20 20 20z" />
    <glyph glyph-name="ordmasculine" unicode="&#xba;" horiz-adv-x="354" 
d="M46 398l-42 43c-3.33301 3.33301 -5 7 -5 11v94c0 4 1.66699 7.66699 5 11l39 39c3.33301 3.33301 7 5 11 5h202c4 0 7.66699 -1.66699 11 -5l42 -42c3.33301 -3.33301 5 -7 5 -11v-90c0 -4 -1.66699 -7.66699 -5 -11l-43 -44c-3.33301 -2.66699 -7.33301 -4 -12 -4h-196
c-5.33301 0 -9.33301 1.33301 -12 4zM15 346h283c10 0 15 -5.33301 15 -16s-5 -16 -15 -16h-283c-10 0 -15 5.33301 -15 16s5 16 15 16zM248 426l34 33v78l-32 32h-189l-30 -30v-81l33 -32h184z" />
    <glyph glyph-name="guillemotright" unicode="&#xbb;" horiz-adv-x="525" 
d="M247 566l232.999 -233c4 -5.33301 6 -10.333 6 -15v-33c0 -4.66699 -2 -9.66699 -6 -15l-266 -267c-4 -4 -8.66699 -6 -14 -6s-10.166 2.16699 -14.499 6.5s-6.5 9.5 -6.5 15.5c0 4.66699 2 9 6 13l261 262v16l-228 228c-4 4 -6 8 -6 12c0 5.33301 2.33301 10.333 7 15
s9.66699 7 15 7c4.66699 0 9 -2 13 -6zM80.999 566l233.001 -232.999c3.33301 -4 5 -9 5 -15v-33c0 -6 -1.66699 -11 -5 -15l-267 -267c-4 -4 -8.33301 -6 -13 -6c-4 0 -8.5 1.83301 -13.5 5.5s-7.5 9.5 -7.5 17.5c0 4.66699 1.66699 8.66699 5 12l261 262v16l-227 228
c-4 4 -6 8.66699 -6 14s2.16699 10.166 6.5 14.499s9.16602 6.5 14.499 6.5s10 -2.33301 14 -7z" />
    <glyph glyph-name="Agrave" unicode="&#xc0;" horiz-adv-x="1314" 
d="M267 238l364.001 364c4 4 9 6 15 6h34c6 0 10.667 -2 14 -6l574 -573c4 -4 6 -8.66699 6 -14c0 -6 -2 -11 -6 -15s-9 -6 -15 -6c-5.33301 0 -10 2 -14 6l-198 198h-756l-199 -198c-4 -4 -8.66699 -6 -14 -6c-4.66699 0 -9.33398 2 -14.001 6s-7 8.66699 -7 14
s2.33301 10.333 7 15l169 169h-57c-8 0 -13.333 2.5 -16 7.5s-4 9.16699 -4 12.5c0 13.333 6.66699 20 20 20h97zM1001 238l-330 330h-17l-329 -330h676zM633.001 761l83 -82.999c4 -4 6 -8.66699 6 -14c0 -6 -2 -11 -6 -15s-9 -6 -15 -6c-5.33301 0 -10 2 -14 6l-83 83
c-4 4 -6 8.66699 -6 14s2.16699 10.166 6.5 14.499s9.5 6.5 15.5 6.5c4.66699 0 9 -2 13 -6z" />
    <glyph glyph-name="Aacute" unicode="&#xc1;" horiz-adv-x="1314" 
d="M267 238l364.001 364c4 4 9 6 15 6h34c6 0 10.667 -2 14 -6l574 -573c4 -4 6 -8.66699 6 -14c0 -6 -2 -11 -6 -15s-9 -6 -15 -6c-5.33301 0 -10 2 -14 6l-198 198h-756l-199 -198c-4 -4 -8.66699 -6 -14 -6c-4.66699 0 -9.33398 2 -14.001 6s-7 8.66699 -7 14
s2.33301 10.333 7 15l169 169h-57c-8 0 -13.333 2.5 -16 7.5s-4 9.16699 -4 12.5c0 13.333 6.66699 20 20 20h97zM1001 238l-330 330h-17l-329 -330h676zM709.001 735l-83.001 -83c-4 -4 -8.66699 -6 -14 -6s-10.166 2.16699 -14.499 6.5s-6.5 9.5 -6.5 15.5
c0 4.66699 2 9 6 13l83 83c4 4 8.66699 6 14 6c6 0 11 -2 15 -6s6 -9 6 -15c0 -5.33301 -2 -10 -6 -14z" />
    <glyph glyph-name="Acircumflex" unicode="&#xc2;" horiz-adv-x="1266" 
d="M557 683l72.999 73.999c4 4 9 6 15 6c5.33301 0 10 -2 14 -6l74 -74c4 -4 6 -8.66699 6 -14s-2.16699 -10.166 -6.5 -14.499s-9.5 -6.5 -15.5 -6.5c-4.66699 0 -9 2 -13 6l-59 60l-59 -60c-4 -4 -8.66699 -6 -14 -6s-10.166 2.16699 -14.499 6.5s-6.5 9.5 -6.5 15.5
c0 4.66699 2 9 6 13zM249.999 237.999l364 364c3.33301 4 8 6 14 6h34c6 0 11 -2 15 -6l573 -573c4 -4 6 -8.66699 6 -14c0 -6 -2 -11 -6 -15s-9 -6 -15 -6c-4.66699 0 -9 2 -13 6l-199 198h-756l-198 -198c-4 -4 -8.66699 -6 -14 -6c-6 0 -11 2 -15 6s-6 9 -6 15
c0 5.33301 2 10 6 14l170 169h-58c-7.33301 0 -12.333 2.5 -15 7.5s-4 9.16699 -4 12.5c0 13.333 6.33301 20 19 20h98zM982.999 237.999l-329 330h-17l-330 -330h676z" />
    <glyph glyph-name="Atilde" unicode="&#xc3;" horiz-adv-x="1266" 
d="M524 672l73.001 74c2.66699 2.66699 6 4 10 4c3.33301 0 6.33301 -1.33301 9 -4l64 -64l65 64c3.33301 2 6.33301 3 9 3c9.33301 0 14 -4.66699 14 -14c0 -3.33301 -1.33301 -6.33301 -4 -9l-74 -73c-2.66699 -2.66699 -6.33398 -4 -11.001 -4
c-3.33301 0 -6.33301 1.33301 -9 4l-64 64l-63 -64c-2.66699 -2.66699 -5.66699 -4 -9 -4c-8.66699 0 -13 5 -13 15c0 3.33301 1 6 3 8zM234.001 238l364 364c3.33301 4 8 6 14 6h34c6 0 11 -2 15 -6l573 -573c4 -4 6 -8.66699 6 -14c0 -6 -2 -11 -6 -15s-9 -6 -15 -6
c-4.66699 0 -9 2 -13 6l-199 198h-756l-198 -198c-4 -4 -8.66699 -6 -14 -6c-6 0 -11 2 -15 6s-6 9 -6 15c0 5.33301 2 10 6 14l170 169h-58c-7.33301 0 -12.333 2.5 -15 7.5s-4 9.16699 -4 12.5c0 13.333 6.33301 20 19 20h98zM967.001 238l-329 330h-17l-330 -330h676z
" />
    <glyph glyph-name="Adieresis" unicode="&#xc4;" horiz-adv-x="1314" 
d="M267 238l364.001 364c4 4 9 6 15 6h34c6 0 10.667 -2 14 -6l574 -573c4 -4 6 -8.66699 6 -14c0 -6 -2 -11 -6 -15s-9 -6 -15 -6c-5.33301 0 -10 2 -14 6l-198 198h-756l-199 -198c-4 -4 -8.66699 -6 -14 -6c-4.66699 0 -9.33398 2 -14.001 6s-7 8.66699 -7 14
s2.33301 10.333 7 15l169 169h-57c-8 0 -13.333 2.5 -16 7.5s-4 9.16699 -4 12.5c0 13.333 6.66699 20 20 20h97zM1001 238l-330 330h-17l-329 -330h676zM610.001 770v-105c0 -8 -2.5 -13.333 -7.5 -16s-9.16699 -4 -12.5 -4c-13.333 0 -20 6.66699 -20 20v105
c0 8 2.5 13.333 7.5 16s9.16699 4 12.5 4c13.333 0 20 -6.66699 20 -20zM756.001 770v-105c0 -8 -2.5 -13.333 -7.5 -16s-9.16699 -4 -12.5 -4c-13.333 0 -20 6.66699 -20 20v105c0 8 2.5 13.333 7.5 16s9.16699 4 12.5 4c13.333 0 20 -6.66699 20 -20z" />
    <glyph glyph-name="AE" unicode="&#xc6;" horiz-adv-x="1373" 
d="M673 198l0.000976562 -164h635c7.33301 0 12.333 -2.5 15 -7.5s4 -9.16699 4 -12.5c0 -13.333 -6.33301 -20 -19 -20h-655c-13.333 0 -20 6.66699 -20 20v184h-348l-199 -198c-4 -4 -8.66699 -6 -14 -6c-4.66699 0 -9.33398 2 -14.001 6s-7 8.66699 -7 14
s2.33301 10.333 7 15l169 169h-88c-7.33301 0 -12.333 2.5 -15 7.5s-4 9.16699 -4 12.5c0 13.333 6.33301 20 19 20h128l364 364c3.33301 3.33301 9 5 17 5l5 1h662c8 0 13.333 -2.5 16 -7.5s4 -9.16699 4 -12.5c0 -13.333 -6.66699 -20 -20 -20h-642v-330h510
c8 0 13.333 -2.5 16 -7.5s4 -9.16699 4 -12.5c0 -13.333 -6.66699 -20 -20 -20h-510zM633.001 238v308l-308 -308h308z" />
    <glyph glyph-name="Ccedilla" unicode="&#xc7;" horiz-adv-x="962" 
d="M460 -6l-5.00098 0.000976562h-282c-6 0 -11 2.33301 -15 7l-105 108c-4 5.33301 -6 9.66602 -6 12.999v361c0 6.66699 2 11.667 6 15l105 104c5.33301 4 10.333 6 15 6h600c5.33301 0 10 -2 14 -6l65 -68c4 -4 6 -8.33301 6 -13v-39c0 -7.33301 -2.5 -12.333 -7.5 -15
s-9.16699 -4 -12.5 -4c-13.333 0 -20 6.33301 -20 19v31l-53 55h-583l-95 -94v-344l94 -96h649l55 53v40c0 8 2.5 13.333 7.5 16s9.16699 4 12.5 4c13.333 0 20 -6.66699 20 -20v-48c0 -5.33301 -2.33301 -10 -7 -14l-67 -65c-5.33301 -4 -9.66602 -6 -12.999 -6h-302
c10.667 -16 16 -33.333 16 -52c0 -25.333 -9 -47 -27 -65s-39.667 -27 -65 -27s-47 9 -65 27s-27 39.667 -27 65c0 8 2.5 13.333 7.5 16s9.16699 4 12.5 4c13.333 0 20 -6.66699 20 -20c0 -14 5.16699 -26.167 15.5 -36.5s22.5 -15.5 36.5 -15.5c14.667 0 27 5 37 15
s15 22.333 15 37s-5 27 -15 37s-22.333 15 -37 15z" />
    <glyph glyph-name="Egrave" unicode="&#xc8;" horiz-adv-x="874" 
d="M137 198v-164h673c8 0 13.333 -2.5 16 -7.5s4 -9.16699 4 -12.5c0 -13.333 -6.66699 -20 -20 -20h-693c-13.333 0 -20 6.66699 -20 20v184h-52c-8 0 -13.333 2.5 -16 7.5s-4 9.16699 -4 12.5c0 13.333 6.66699 20 20 20h52v316c0 6.66699 2.33301 12 7 16l38 33
c4 3.33301 8.33301 5 13 5h663c7.33301 0 12.333 -2.5 15 -7.5s4 -9.16699 4 -12.5c0 -13.333 -6.33301 -20 -19 -20h-656l-25 -22v-308h549c7.33301 0 12.333 -2.5 15 -7.5s4 -9.16699 4 -12.5c0 -13.333 -6.33301 -20 -19 -20h-549zM466 761l83 -82.999
c4 -4 6 -8.66699 6 -14c0 -6 -2 -11 -6 -15s-9 -6 -15 -6c-5.33301 0 -10 2 -14 6l-83 83c-4 4 -6 8.66699 -6 14s2.16699 10.166 6.5 14.499s9.5 6.5 15.5 6.5c4.66699 0 9 -2 13 -6z" />
    <glyph glyph-name="Eacute" unicode="&#xc9;" horiz-adv-x="874" 
d="M137 198v-164h673c8 0 13.333 -2.5 16 -7.5s4 -9.16699 4 -12.5c0 -13.333 -6.66699 -20 -20 -20h-693c-13.333 0 -20 6.66699 -20 20v184h-52c-8 0 -13.333 2.5 -16 7.5s-4 9.16699 -4 12.5c0 13.333 6.66699 20 20 20h52v316c0 6.66699 2.33301 12 7 16l38 33
c4 3.33301 8.33301 5 13 5h663c7.33301 0 12.333 -2.5 15 -7.5s4 -9.16699 4 -12.5c0 -13.333 -6.33301 -20 -19 -20h-656l-25 -22v-308h549c7.33301 0 12.333 -2.5 15 -7.5s4 -9.16699 4 -12.5c0 -13.333 -6.33301 -20 -19 -20h-549zM537 735l-83.001 -83
c-4 -4 -8.66699 -6 -14 -6s-10.166 2.16699 -14.499 6.5s-6.5 9.5 -6.5 15.5c0 4.66699 2 9 6 13l83 83c4 4 8.66699 6 14 6c6 0 11 -2 15 -6s6 -9 6 -15c0 -5.33301 -2 -10 -6 -14z" />
    <glyph glyph-name="Ecircumflex" unicode="&#xca;" horiz-adv-x="880" 
d="M378 683l72.999 74c4 4 9 6 15 6c4 0 8.66699 -2 14 -6l74 -74c4 -4 6 -8.66699 6 -14s-2.16699 -10.166 -6.5 -14.499s-9.5 -6.5 -15.5 -6.5c-4.66699 0 -9 2 -13 6l-59 60l-60 -60c-4 -4 -8.66699 -6 -14 -6s-10.166 2.16699 -14.499 6.5s-6.5 9.16602 -6.5 14.499
s2.33301 10 7 14zM125.999 198v-164h673c8 0 13.333 -2.5 16 -7.5s4 -9.16699 4 -12.5c0 -13.333 -6.66699 -20 -20 -20h-693c-13.333 0 -20 6.66699 -20 20v184h-52c-8 0 -13.333 2.5 -16 7.5s-4 9.16699 -4 12.5c0 13.333 6.66699 20 20 20h52v316
c0 6.66699 2.33301 12 7 16l38 33c4 3.33301 8.33301 5 13 5h662c8 0 13.333 -2.5 16 -7.5s4 -9.16699 4 -12.5c0 -13.333 -6.66699 -20 -20 -20h-655l-25 -22v-308h548c8 0 13.333 -2.5 16 -7.5s4 -9.16699 4 -12.5c0 -13.333 -6.66699 -20 -20 -20h-548z" />
    <glyph glyph-name="Edieresis" unicode="&#xcb;" horiz-adv-x="874" 
d="M137 198v-164h673c8 0 13.333 -2.5 16 -7.5s4 -9.16699 4 -12.5c0 -13.333 -6.66699 -20 -20 -20h-693c-13.333 0 -20 6.66699 -20 20v184h-52c-8 0 -13.333 2.5 -16 7.5s-4 9.16699 -4 12.5c0 13.333 6.66699 20 20 20h52v316c0 6.66699 2.33301 12 7 16l38 33
c4 3.33301 8.33301 5 13 5h663c7.33301 0 12.333 -2.5 15 -7.5s4 -9.16699 4 -12.5c0 -13.333 -6.33301 -20 -19 -20h-656l-25 -22v-308h549c7.33301 0 12.333 -2.5 15 -7.5s4 -9.16699 4 -12.5c0 -13.333 -6.33301 -20 -19 -20h-549zM460 770v-105
c0 -8 -2.5 -13.333 -7.5 -16s-9.16699 -4 -12.5 -4c-13.333 0 -20 6.66699 -20 20v105c0 8 2.5 13.333 7.5 16s9.16699 4 12.5 4c13.333 0 20 -6.66699 20 -20zM606 770v-105c0 -8 -2.5 -13.333 -7.5 -16s-9.16699 -4 -12.5 -4c-13.333 0 -20 6.66699 -20 20v105
c0 8 2.5 13.333 7.5 16s9.16699 4 12.5 4c13.333 0 20 -6.66699 20 -20z" />
    <glyph glyph-name="Igrave" unicode="&#xcc;" horiz-adv-x="798" 
d="M398 568v-534h328c8 0 13.333 -2.5 16 -7.5s4 -9.16699 4 -12.5c0 -13.333 -6.66699 -20 -20 -20h-652c-8 0 -13.333 2.5 -16 7.5s-4 9.16699 -4 12.5c0 13.333 6.66699 20 20 20h284v534h-292c-7.33301 0 -12.333 2.5 -15 7.5s-4 9.16699 -4 12.5
c0 13.333 6.33301 20 19 20h660c8 0 13.333 -2.5 16 -7.5s4 -9.16699 4 -12.5c0 -13.333 -6.66699 -20 -20 -20h-328zM351 762l83 -82.999c4 -4 6 -8.66699 6 -14c0 -6 -2 -11 -6 -15s-9 -6 -15 -6c-5.33301 0 -10 2 -14 6l-83 83c-4 4 -6 8.66699 -6 14
s2.16699 10.166 6.5 14.499s9.5 6.5 15.5 6.5c4.66699 0 9 -2 13 -6z" />
    <glyph glyph-name="Iacute" unicode="&#xcd;" horiz-adv-x="798" 
d="M398 568v-534h328c8 0 13.333 -2.5 16 -7.5s4 -9.16699 4 -12.5c0 -13.333 -6.66699 -20 -20 -20h-652c-8 0 -13.333 2.5 -16 7.5s-4 9.16699 -4 12.5c0 13.333 6.66699 20 20 20h284v534h-292c-7.33301 0 -12.333 2.5 -15 7.5s-4 9.16699 -4 12.5
c0 13.333 6.33301 20 19 20h660c8 0 13.333 -2.5 16 -7.5s4 -9.16699 4 -12.5c0 -13.333 -6.66699 -20 -20 -20h-328zM434 733l-83.001 -83c-4 -4 -8.66699 -6 -14 -6s-10.166 2.16699 -14.499 6.5s-6.5 9.5 -6.5 15.5c0 4.66699 2 9 6 13l83 83c4 4 8.66699 6 14 6
c6 0 11 -2 15 -6s6 -9 6 -15c0 -5.33301 -2 -10 -6 -14z" />
    <glyph glyph-name="Icircumflex" unicode="&#xce;" horiz-adv-x="760" 
d="M282 683l72.999 74c4 4 9 6 15 6c4 0 8.66699 -2 14 -6l74 -74c4 -4 6 -8.66699 6 -14s-2.16699 -10.166 -6.5 -14.499s-9.5 -6.5 -15.5 -6.5c-4.66699 0 -9 2 -13 6l-59 60l-60 -60c-4 -4 -8.66699 -6 -14 -6s-10.166 2.16699 -14.499 6.5s-6.5 9.16602 -6.5 14.499
s2.33301 10 7 14zM386.999 568v-534h328c8 0 13.333 -2.5 16 -7.5s4 -9.16699 4 -12.5c0 -13.333 -6.66699 -20 -20 -20h-653c-7.33301 0 -12.333 2.5 -15 7.5s-4 9.16699 -4 12.5c0 13.333 6.33301 20 19 20h285v534h-292c-7.33301 0 -12.333 2.5 -15 7.5
s-4 9.16699 -4 12.5c0 13.333 6.33301 20 19 20h660c8 0 13.333 -2.5 16 -7.5s4 -9.16699 4 -12.5c0 -13.333 -6.66699 -20 -20 -20h-328z" />
    <glyph glyph-name="Idieresis" unicode="&#xcf;" horiz-adv-x="798" 
d="M398 568v-534h328c8 0 13.333 -2.5 16 -7.5s4 -9.16699 4 -12.5c0 -13.333 -6.66699 -20 -20 -20h-652c-8 0 -13.333 2.5 -16 7.5s-4 9.16699 -4 12.5c0 13.333 6.66699 20 20 20h284v534h-292c-7.33301 0 -12.333 2.5 -15 7.5s-4 9.16699 -4 12.5
c0 13.333 6.33301 20 19 20h660c8 0 13.333 -2.5 16 -7.5s4 -9.16699 4 -12.5c0 -13.333 -6.66699 -20 -20 -20h-328zM327 770v-105c0 -8 -2.5 -13.333 -7.5 -16s-9.16699 -4 -12.5 -4c-13.333 0 -20 6.66699 -20 20v105c0 8 2.5 13.333 7.5 16s9.16699 4 12.5 4
c13.333 0 20 -6.66699 20 -20zM473 770v-105c0 -8 -2.5 -13.333 -7.5 -16s-9.16699 -4 -12.5 -4c-13.333 0 -20 6.66699 -20 20v105c0 8 2.5 13.333 7.5 16s9.16699 4 12.5 4c13.333 0 20 -6.66699 20 -20z" />
    <glyph glyph-name="Ntilde" unicode="&#xd1;" horiz-adv-x="713" 
d="M233 672l73 74c2.66699 2.66699 6 4 10 4c3.33301 0 6.33301 -1.33301 9 -4l64 -64l65 64c3.33301 2 6.33301 3 9 3c9.33301 0 14 -4.66699 14 -14c0 -3.33301 -1.33301 -6.33301 -4 -9l-75 -73c-2.66699 -2.66699 -6 -4 -10 -4c-3.33301 0 -6.33301 1.33301 -9 4l-64 64
l-63 -64c-2.66699 -2.66699 -5.66699 -4 -9 -4c-8.66699 0 -13 5 -13 15c0 3.33301 1 6 3 8zM52 14v573.999c0 13.333 6.66699 20 20 20c5.33301 0 10 -2 14 -6l560 -559c4 -4 6 -8.66699 6 -14s-2.16699 -10.166 -6.5 -14.499s-9.5 -6.5 -15.5 -6.5c-4.66699 0 -9 2 -13 6
l-525 525v-525c0 -7.33301 -2.5 -12.333 -7.5 -15s-9.16699 -4 -12.5 -4c-13.333 0 -20 6.33301 -20 19zM658 587.999v-574c0 -7.33301 -2.5 -12.333 -7.5 -15s-9.16699 -4 -12.5 -4c-13.333 0 -20 6.33301 -20 19v574c0 7.33301 2.5 12.333 7.5 15s9.16699 4 12.5 4
c13.333 0 20 -6.33301 20 -19z" />
    <glyph glyph-name="Ograve" unicode="&#xd2;" horiz-adv-x="991" 
d="M62 497l106 105c4 4 8.66699 6 14 6h629c6 0 11 -2 15 -6l103 -106c3.33301 -4 5 -8.66699 5 -14v-362c0 -6 -2 -10.667 -6 -14l-110 -106c-5.33301 -4 -10 -6 -14 -6h-622c-6.66699 0 -11.667 2 -15 6l-105 106c-3.33301 3.33301 -5 8 -5 14v362c0 6 1.66699 11 5 15z
M97 129l93 -95h606l98 94v346l-91 94h-612l-94 -94v-345zM476 764l83 -82.999c4 -4 6 -8.66699 6 -14c0 -6 -2 -11 -6 -15s-9 -6 -15 -6c-5.33301 0 -10 2 -14 6l-83 83c-4 4 -6 8.66699 -6 14s2.16699 10.166 6.5 14.499s9.5 6.5 15.5 6.5c4.66699 0 9 -2 13 -6z" />
    <glyph glyph-name="Oacute" unicode="&#xd3;" horiz-adv-x="991" 
d="M62 497l106 105c4 4 8.66699 6 14 6h629c6 0 11 -2 15 -6l103 -106c3.33301 -4 5 -8.66699 5 -14v-362c0 -6 -2 -10.667 -6 -14l-110 -106c-5.33301 -4 -10 -6 -14 -6h-622c-6.66699 0 -11.667 2 -15 6l-105 106c-3.33301 3.33301 -5 8 -5 14v362c0 6 1.66699 11 5 15z
M97 129l93 -95h606l98 94v346l-91 94h-612l-94 -94v-345zM552 733l-83.001 -83c-4 -4 -8.66699 -6 -14 -6s-10.166 2.16699 -14.499 6.5s-6.5 9.5 -6.5 15.5c0 4.66699 2 9 6 13l83 83c4 4 8.66699 6 14 6c6 0 11 -2 15 -6s6 -9 6 -15c0 -5.33301 -2 -10 -6 -14z" />
    <glyph glyph-name="Ocircumflex" unicode="&#xd4;" horiz-adv-x="928" 
d="M382 683l72.999 74c4 4 9 6 15 6c4 0 8.66699 -2 14 -6l74 -74c4 -4 6 -8.66699 6 -14s-2.16699 -10.166 -6.5 -14.499s-9.5 -6.5 -15.5 -6.5c-4.66699 0 -9 2 -13 6l-59 60l-60 -60c-4 -4 -8.66699 -6 -14 -6s-10.166 2.16699 -14.499 6.5s-6.5 9.16602 -6.5 14.499
s2.33301 10 7 14zM41.999 497l106 105c4 4 8.66699 6 14 6h629c6 0 11 -2 15 -6l103 -106c3.33301 -4 5 -8.66699 5 -14v-362c0 -6 -2 -10.667 -6 -14l-110 -106c-5.33301 -4 -10 -6 -14 -6h-622c-6.66699 0 -11.667 2 -15 6l-105 106c-3.33301 3.33301 -5 8 -5 14v362
c0 6 1.66699 11 5 15zM76.999 129l93 -95h606l98 94v346l-91 94h-612l-94 -94v-345z" />
    <glyph glyph-name="Otilde" unicode="&#xd5;" horiz-adv-x="955" 
d="M386 672l71.999 74c2.66699 2.66699 6.33398 4 11.001 4c3.33301 0 6.33301 -1.33301 9 -4l64 -64l64 64c3.33301 2 6.33301 3 9 3c9.33301 0 14 -5 14 -15c0 -3.33301 -1 -6 -3 -8l-75 -73c-2.66699 -2.66699 -6 -4 -10 -4c-3.33301 0 -6.33301 1.33301 -9 4l-64 64
l-63 -64c-2.66699 -2.66699 -5.66699 -4 -9 -4c-9.33301 0 -14 4.66699 -14 14c0 3.33301 1.33301 6.33301 4 9zM49.999 497l106 105c4 4 8.66699 6 14 6h629c6 0 11 -2 15 -6l103 -106c3.33301 -4 5 -8.66699 5 -14v-362c0 -6 -2 -10.667 -6 -14l-110 -106
c-5.33301 -4 -10 -6 -14 -6h-622c-6.66699 0 -11.667 2 -15 6l-105 106c-3.33301 3.33301 -5 8 -5 14v362c0 6 1.66699 11 5 15zM84.999 129l93 -95h606l98 94v346l-91 94h-612l-94 -94v-345z" />
    <glyph glyph-name="Odieresis" unicode="&#xd6;" horiz-adv-x="991" 
d="M62 497l106 105c4 4 8.66699 6 14 6h629c6 0 11 -2 15 -6l103 -106c3.33301 -4 5 -8.66699 5 -14v-362c0 -6 -2 -10.667 -6 -14l-110 -106c-5.33301 -4 -10 -6 -14 -6h-622c-6.66699 0 -11.667 2 -15 6l-105 106c-3.33301 3.33301 -5 8 -5 14v362c0 6 1.66699 11 5 15z
M97 129l93 -95h606l98 94v346l-91 94h-612l-94 -94v-345zM438 770v-105c0 -8 -2.5 -13.333 -7.5 -16s-9.16699 -4 -12.5 -4c-13.333 0 -20 6.66699 -20 20v105c0 8 2.5 13.333 7.5 16s9.16699 4 12.5 4c13.333 0 20 -6.66699 20 -20zM584 770v-105
c0 -8 -2.5 -13.333 -7.5 -16s-9.16699 -4 -12.5 -4c-13.333 0 -20 6.66699 -20 20v105c0 8 2.5 13.333 7.5 16s9.16699 4 12.5 4c13.333 0 20 -6.66699 20 -20z" />
    <glyph glyph-name="Ugrave" unicode="&#xd9;" horiz-adv-x="782" 
d="M730 588v-470c0 -7.33301 -1.66699 -12.333 -5 -15l-104 -103c-5.33301 -4 -10.333 -6 -15 -6h-425c-4.66699 0 -9.66699 2 -15 6l-104 103c-3.33301 3.33301 -5 8.33301 -5 15v470c0 7.33301 2.5 12.333 7.5 15s9.16699 4 12.5 4c13.333 0 20 -6.33301 20 -19v-462
l93 -92h408l92 92v462c0 7.33301 2.5 12.333 7.5 15s9.16699 4 12.5 4c13.333 0 20 -6.33301 20 -19zM345 764l83 -82.999c4 -4 6 -8.66699 6 -14c0 -6 -2 -11 -6 -15s-9 -6 -15 -6c-5.33301 0 -10 2 -14 6l-83 83c-4 4 -6 8.66699 -6 14s2.16699 10.166 6.5 14.499
s9.5 6.5 15.5 6.5c4.66699 0 9 -2 13 -6z" />
    <glyph glyph-name="Uacute" unicode="&#xda;" horiz-adv-x="782" 
d="M730 588v-470c0 -7.33301 -1.66699 -12.333 -5 -15l-104 -103c-5.33301 -4 -10.333 -6 -15 -6h-425c-4.66699 0 -9.66699 2 -15 6l-104 103c-3.33301 3.33301 -5 8.33301 -5 15v470c0 7.33301 2.5 12.333 7.5 15s9.16699 4 12.5 4c13.333 0 20 -6.33301 20 -19v-462
l93 -92h408l92 92v462c0 7.33301 2.5 12.333 7.5 15s9.16699 4 12.5 4c13.333 0 20 -6.33301 20 -19zM436 733l-83.001 -83c-4 -4 -8.66699 -6 -14 -6s-10.166 2.16699 -14.499 6.5s-6.5 9.5 -6.5 15.5c0 4.66699 2 9 6 13l83 83c4 4 8.66699 6 14 6c6 0 11 -2 15 -6
s6 -9 6 -15c0 -5.33301 -2 -10 -6 -14z" />
    <glyph glyph-name="Ucircumflex" unicode="&#xdb;" horiz-adv-x="740" 
d="M274 683l73.999 74c4 4 9 6 15 6c4 0 8.66699 -2 14 -6l73 -74c4 -4 6 -8.66699 6 -14c0 -6 -2 -11 -6 -15s-9 -6 -15 -6c-4.66699 0 -9 2 -13 6l-60 60l-59 -60c-4 -4 -8.66699 -6 -14 -6s-10.166 2.16699 -14.499 6.5s-6.5 9.5 -6.5 15.5c0 4.66699 2 9 6 13z
M705.999 588v-470c0 -6.66699 -2 -11.667 -6 -15l-104 -103c-5.33301 -4 -10 -6 -14 -6h-426c-5.33301 0 -10 2 -14 6l-104 103c-4 3.33301 -6 8.33301 -6 15v470c0 7.33301 2.5 12.333 7.5 15s9.16699 4 12.5 4c13.333 0 20 -6.33301 20 -19v-462l93 -92h408l93 92v462
c0 7.33301 2.5 12.333 7.5 15s9.16699 4 12.5 4c13.333 0 20 -6.33301 20 -19z" />
    <glyph glyph-name="Udieresis" unicode="&#xdc;" horiz-adv-x="744" 
d="M671 588v-470c0 -6.66699 -1.66699 -11.667 -5 -15l-104 -103c-5.33301 -4 -10.333 -6 -15 -6h-425c-4.66699 0 -9.66699 2 -15 6l-104 103c-3.33301 2.66699 -5 7.66699 -5 15v470c0 7.33301 2.5 12.333 7.5 15s9.16699 4 12.5 4c13.333 0 20 -6.33301 20 -19v-462
l92 -92h408l93 92v462c0 7.33301 2.5 12.333 7.5 15s9.16699 4 12.5 4c13.333 0 20 -6.33301 20 -19zM278 751v-105c0 -8 -2.5 -13.333 -7.5 -16s-9.16699 -4 -12.5 -4c-13.333 0 -20 6.66699 -20 20v105c0 8 2.5 13.333 7.5 16s9.16699 4 12.5 4
c13.333 0 20 -6.66699 20 -20zM423 751v-105c0 -8 -2.5 -13.333 -7.5 -16s-9.16699 -4 -12.5 -4c-13.333 0 -20 6.66699 -20 20v105c0 8 2.5 13.333 7.5 16s9.16699 4 12.5 4c13.333 0 20 -6.66699 20 -20z" />
    <glyph glyph-name="agrave" unicode="&#xe0;" 
d="M215 207l258 258.999c3.33301 3.33301 8 5 14 5h34c6 0 10.667 -1.66699 14 -5l436 -437c4 -4 6 -8.66699 6 -14s-2.16699 -10.166 -6.5 -14.499s-9.5 -6.5 -15.5 -6.5c-4.66699 0 -9 2 -13 6l-167 167h-542l-167 -167c-4 -4 -8.66699 -6 -14 -6c-6 0 -11 2 -15 6
s-6 9 -6 15c0 5.33301 2 10 6 14l138 138h-55c-7.33301 0 -12.333 2.5 -15 7.5s-4 9.16699 -4 12.5c0 13.333 6.33301 20 19 20h95zM735 206.999l-223 224h-16l-223 -224h462zM473 641.999l83 -82.999c4 -4 6 -8.66699 6 -14c0 -6 -2 -11 -6 -15s-9 -6 -15 -6
c-5.33301 0 -10 2 -14 6l-83 83c-4 4 -6 8.66699 -6 14s2.16699 10.166 6.5 14.499s9.5 6.5 15.5 6.5c4.66699 0 9 -2 13 -6z" />
    <glyph glyph-name="aacute" unicode="&#xe1;" 
d="M215 207l258 258.999c3.33301 3.33301 8 5 14 5h34c6 0 10.667 -1.66699 14 -5l436 -437c4 -4 6 -8.66699 6 -14s-2.16699 -10.166 -6.5 -14.499s-9.5 -6.5 -15.5 -6.5c-4.66699 0 -9 2 -13 6l-167 167h-542l-167 -167c-4 -4 -8.66699 -6 -14 -6c-6 0 -11 2 -15 6
s-6 9 -6 15c0 5.33301 2 10 6 14l138 138h-55c-7.33301 0 -12.333 2.5 -15 7.5s-4 9.16699 -4 12.5c0 13.333 6.33301 20 19 20h95zM735 206.999l-223 224h-16l-223 -224h462zM549 612.999l-83.001 -83c-4 -4 -8.66699 -6 -14 -6s-10.166 2.16699 -14.499 6.5
s-6.5 9.5 -6.5 15.5c0 4.66699 2 9 6 13l83 83c4 4 8.66699 6 14 6c6 0 11 -2 15 -6s6 -9 6 -15c0 -5.33301 -2 -10 -6 -14z" />
    <glyph glyph-name="acircumflex" unicode="&#xe2;" horiz-adv-x="989" 
d="M409 562l73 72.999c4.66699 4.66699 9.66699 7 15 7s10 -2.33301 14 -7l74 -73c4 -4 6 -8.66699 6 -14s-2.16699 -10.166 -6.5 -14.499s-9.5 -6.5 -15.5 -6.5c-4.66699 0 -9 2 -13 6l-59 59l-59 -59c-4 -4 -8.66699 -6 -14 -6c-6 0 -11 2 -15 6s-6 9 -6 15
c0 5.33301 2 10 6 14zM210 206.999l257 259.001c3.33301 3.33301 8.33301 5 15 5h33c6.66699 0 11.667 -1.66699 15 -5l436 -437c4 -4 6 -8.33301 6 -13c0 -5.33301 -2.33301 -10.333 -7 -15s-9.66699 -7 -15 -7c-4.66699 0 -9 2 -13 6l-167 167h-543l-167 -167
c-4 -4 -8.33301 -6 -13 -6c-14 0 -21 7.33301 -21 22c0 5.33301 1.66699 9.66602 5 12.999l139 138h-56c-7.33301 0 -12.333 2.5 -15 7.5s-4 9.16699 -4 12.5c0 13.333 6.33301 20 19 20h96zM730 207l-224 224h-16l-223 -224h463z" />
    <glyph glyph-name="atilde" unicode="&#xe3;" 
d="M215 207l258 258.999c3.33301 3.33301 8 5 14 5h34c6 0 10.667 -1.66699 14 -5l436 -437c4 -4 6 -8.66699 6 -14s-2.16699 -10.166 -6.5 -14.499s-9.5 -6.5 -15.5 -6.5c-4.66699 0 -9 2 -13 6l-167 167h-542l-167 -167c-4 -4 -8.66699 -6 -14 -6c-6 0 -11 2 -15 6
s-6 9 -6 15c0 5.33301 2 10 6 14l138 138h-55c-7.33301 0 -12.333 2.5 -15 7.5s-4 9.16699 -4 12.5c0 13.333 6.33301 20 19 20h95zM735 206.999l-223 224h-16l-223 -224h462zM398 550.999l71.999 73c2.66699 3.33301 6.33398 5 11.001 5c2.66699 0 5.66699 -1.66699 9 -5
l64 -64l64 64c2.66699 2.66699 5.66699 4 9 4c9.33301 0 14 -5 14 -15c0 -3.33301 -1 -6 -3 -8l-75 -73c-2.66699 -2.66699 -6 -4 -10 -4c-3.33301 0 -6.33301 1.33301 -9 4l-64 64l-63 -64c-2.66699 -2.66699 -5.66699 -4 -9 -4c-9.33301 0 -14 4.66699 -14 14
c0 3.33301 1.33301 6.33301 4 9z" />
    <glyph glyph-name="adieresis" unicode="&#xe4;" 
d="M215 207l258 258.999c3.33301 3.33301 8 5 14 5h34c6 0 10.667 -1.66699 14 -5l436 -437c4 -4 6 -8.66699 6 -14s-2.16699 -10.166 -6.5 -14.499s-9.5 -6.5 -15.5 -6.5c-4.66699 0 -9 2 -13 6l-167 167h-542l-167 -167c-4 -4 -8.66699 -6 -14 -6c-6 0 -11 2 -15 6
s-6 9 -6 15c0 5.33301 2 10 6 14l138 138h-55c-7.33301 0 -12.333 2.5 -15 7.5s-4 9.16699 -4 12.5c0 13.333 6.33301 20 19 20h95zM735 206.999l-223 224h-16l-223 -224h462zM444 641.999v-105c0 -8 -2.5 -13.333 -7.5 -16s-9.16699 -4 -12.5 -4
c-13.333 0 -20 6.66699 -20 20v105c0 8 2.5 13.333 7.5 16s9.16699 4 12.5 4c13.333 0 20 -6.66699 20 -20zM590 641.999v-105c0 -8 -2.5 -13.333 -7.5 -16s-9.16699 -4 -12.5 -4c-13.333 0 -20 6.66699 -20 20v105c0 8 2.5 13.333 7.5 16s9.16699 4 12.5 4
c13.333 0 20 -6.66699 20 -20z" />
    <glyph glyph-name="ae" unicode="&#xe6;" horiz-adv-x="1076" 
d="M498 471c11.333 -2.66699 17 -9.66699 17 -21c0 -4.66699 -2 -9 -6 -13l-29 -29v43c0 13.333 6 20 18 20h506c7.33301 0 12.333 -2.5 15 -7.5s4 -9.16699 4 -12.5c0 -13.333 -6.33301 -20 -19 -20h-484v-241h384c7.33301 0 12.333 -2.5 15 -7.5s4 -9.16699 4 -12.5
c0 -13.333 -6.33301 -20 -19 -20h-384v-116h478c8 0 13.333 -2.5 16 -7.5s4 -9.16699 4 -12.5c0 -13.333 -6.66699 -20 -20 -20h-498c-13.333 0 -20 6.66699 -20 20v136h-258l-150 -150c-4 -4 -8.66699 -6 -14 -6c-6 0 -11 2 -15 6s-6 9 -6 15c0 5.33301 2 10 6 14l121 121
h-55c-8 0 -13.333 2.5 -16 7.5s-4 9.16699 -4 12.5c0 13.333 6.66699 20 20 20h95l276 276c4 3.33301 10 5 18 5zM480 190v218l-218 -218h218z" />
    <glyph glyph-name="ccedilla" unicode="&#xe7;" horiz-adv-x="800" 
d="M410 -6h-48h-204c-5.33301 0 -10 2 -14 6l-103 103c-4 4 -6 9 -6 15v232c0 6 2 11 6 15l101 101c3.33301 3.33301 8 5 14 5h467c6 0 11 -1.66699 15 -5l65 -65c4 -3.33301 6 -8.33301 6 -15v-36c0 -7.33301 -2.5 -12.333 -7.5 -15s-9.16699 -4 -12.5 -4
c-13.333 0 -20 6.33301 -20 19v28l-55 53h-449l-90 -89v-216l92 -92h478l91 92v30c0 7.33301 2.5 12.333 7.5 15s9.16699 4 12.5 4c13.333 0 20 -6.33301 20 -19v-38c0 -4.66699 -2 -9.66699 -6 -15l-102 -103c-3.33301 -4 -8 -6 -14 -6h-183c11.333 -14.667 17 -32 17 -52
c0 -25.333 -9 -47 -27 -65s-39.667 -27 -65 -27s-47 9 -65 27s-27 39.667 -27 65c0 8 2.5 13.333 7.5 16s9.16699 4 12.5 4c13.333 0 20 -6.66699 20 -20c0 -14 5.16699 -26.167 15.5 -36.5s22.5 -15.5 36.5 -15.5c14.667 0 27 5 37 15s15 22.333 15 37
c0 26.667 -12.667 44 -38 52z" />
    <glyph glyph-name="egrave" unicode="&#xe8;" horiz-adv-x="725" 
d="M92 205v213c0 6 2 11 6 15l34 33c4 3.33301 8.66699 5 14 5h535c7.33301 0 12.333 -2.5 15 -7.5s4 -9.16699 4 -12.5c0 -13.333 -6.33301 -20 -19 -20h-527l-22 -21v-205h412c7.33301 0 12.333 -2.5 15 -7.5s4 -9.16699 4 -12.5c0 -13.333 -6.33301 -20 -19 -20h-412
v-131h544c7.33301 0 12.333 -2.5 15 -7.5s4 -9.16699 4 -12.5c0 -13.333 -6.33301 -20 -19 -20h-564c-13.333 0 -20 6.66699 -20 20v151h-52c-7.33301 0 -12.333 2.5 -15 7.5s-4 9.16699 -4 12.5c0 13.333 6.33301 20 19 20h52zM391 642l83 -82.999c4 -4 6 -8.66699 6 -14
c0 -6 -2 -11 -6 -15s-9 -6 -15 -6c-5.33301 0 -10 2 -14 6l-83 83c-4 4 -6 8.66699 -6 14s2.16699 10.166 6.5 14.499s9.5 6.5 15.5 6.5c4.66699 0 9 -2 13 -6z" />
    <glyph glyph-name="eacute" unicode="&#xe9;" horiz-adv-x="766" 
d="M98 205v213c0 6 2.33301 11 7 15l33 33c4 3.33301 8.66699 5 14 5h535c8 0 13.333 -2.5 16 -7.5s4 -9.16699 4 -12.5c0 -13.333 -6.66699 -20 -20 -20h-527l-22 -21v-205h412c8 0 13.333 -2.5 16 -7.5s4 -9.16699 4 -12.5c0 -13.333 -6.66699 -20 -20 -20h-412v-131h544
c8 0 13.333 -2.5 16 -7.5s4 -9.16699 4 -12.5c0 -13.333 -6.66699 -20 -20 -20h-564c-13.333 0 -20 6.66699 -20 20v151h-52c-7.33301 0 -12.333 2.5 -15 7.5s-4 9.16699 -4 12.5c0 13.333 6.33301 20 19 20h52zM478 614l-84.001 -83.999c-4 -4 -8.66699 -6 -14 -6
s-10.166 2.16699 -14.499 6.5s-6.5 9.16602 -6.5 14.499s2.33301 10 7 14l83 83c4 4 8.66699 6 14 6c6 0 11 -2 15 -6s6 -9 6 -15c0 -4.66699 -2 -9 -6 -13z" />
    <glyph glyph-name="ecircumflex" unicode="&#xea;" horiz-adv-x="739" 
d="M319 562l73.999 73c4.66699 4.66699 9.66699 7 15 7c4.66699 0 9.33398 -2.33301 14.001 -7l73 -73c4 -4 6 -8.66699 6 -14c0 -6 -2 -11 -6 -15s-9 -6 -15 -6c-5.33301 0 -10 2 -14 6l-59 59l-59 -59c-4 -4 -8.66699 -6 -14 -6c-6 0 -11 2 -15 6s-6 9 -6 15
c0 5.33301 2 10 6 14zM79.999 205v213c0 6 2 11 6 15l34 33c4 3.33301 8.66699 5 14 5h535c7.33301 0 12.333 -2.5 15 -7.5s4 -9.16699 4 -12.5c0 -13.333 -6.33301 -20 -19 -20h-527l-22 -21v-205h412c7.33301 0 12.333 -2.5 15 -7.5s4 -9.16699 4 -12.5
c0 -13.333 -6.33301 -20 -19 -20h-412v-131h544c7.33301 0 12.333 -2.5 15 -7.5s4 -9.16699 4 -12.5c0 -13.333 -6.33301 -20 -19 -20h-564c-13.333 0 -20 6.66699 -20 20v151h-52c-7.33301 0 -12.333 2.5 -15 7.5s-4 9.16699 -4 12.5c0 13.333 6.33301 20 19 20h52z" />
    <glyph glyph-name="edieresis" unicode="&#xeb;" horiz-adv-x="725" 
d="M92 205v213c0 6 2 11 6 15l34 33c4 3.33301 8.66699 5 14 5h535c7.33301 0 12.333 -2.5 15 -7.5s4 -9.16699 4 -12.5c0 -13.333 -6.33301 -20 -19 -20h-527l-22 -21v-205h412c7.33301 0 12.333 -2.5 15 -7.5s4 -9.16699 4 -12.5c0 -13.333 -6.33301 -20 -19 -20h-412
v-131h544c7.33301 0 12.333 -2.5 15 -7.5s4 -9.16699 4 -12.5c0 -13.333 -6.33301 -20 -19 -20h-564c-13.333 0 -20 6.66699 -20 20v151h-52c-7.33301 0 -12.333 2.5 -15 7.5s-4 9.16699 -4 12.5c0 13.333 6.33301 20 19 20h52zM322 636v-105c0 -8 -2.5 -13.333 -7.5 -16
s-9.16699 -4 -12.5 -4c-13.333 0 -20 6.66699 -20 20v105c0 8 2.5 13.333 7.5 16s9.16699 4 12.5 4c13.333 0 20 -6.66699 20 -20zM468 636v-105c0 -8 -2.5 -13.333 -7.5 -16s-9.16699 -4 -12.5 -4c-13.333 0 -20 6.66699 -20 20v105c0 8 2.5 13.333 7.5 16
s9.16699 4 12.5 4c13.333 0 20 -6.66699 20 -20z" />
    <glyph glyph-name="igrave" unicode="&#xec;" horiz-adv-x="565" 
d="M307 431v-397h177c7.33301 0 12.333 -2.5 15 -7.5s4 -9.16699 4 -12.5c0 -13.333 -6.33301 -20 -19 -20h-398c-8 0 -13.333 2.5 -16 7.5s-4 9.16699 -4 12.5c0 13.333 6.66699 20 20 20h181v397h-184c-7.33301 0 -12.333 2.5 -15 7.5s-4 9.16699 -4 12.5
c0 13.333 6.33301 20 19 20h406c7.33301 0 12.333 -2.5 15 -7.5s4 -9.16699 4 -12.5c0 -13.333 -6.33301 -20 -19 -20h-182zM262 642l83 -82.999c4 -4 6 -8.66699 6 -14c0 -6 -2 -11 -6 -15s-9 -6 -15 -6c-5.33301 0 -10 2 -14 6l-83 83c-4 4 -6 8.66699 -6 14
s2.16699 10.166 6.5 14.499s9.5 6.5 15.5 6.5c4.66699 0 9 -2 13 -6z" />
    <glyph glyph-name="iacute" unicode="&#xed;" horiz-adv-x="565" 
d="M307 431v-397h177c7.33301 0 12.333 -2.5 15 -7.5s4 -9.16699 4 -12.5c0 -13.333 -6.33301 -20 -19 -20h-398c-8 0 -13.333 2.5 -16 7.5s-4 9.16699 -4 12.5c0 13.333 6.66699 20 20 20h181v397h-184c-7.33301 0 -12.333 2.5 -15 7.5s-4 9.16699 -4 12.5
c0 13.333 6.33301 20 19 20h406c7.33301 0 12.333 -2.5 15 -7.5s4 -9.16699 4 -12.5c0 -13.333 -6.33301 -20 -19 -20h-182zM338 613l-83.001 -83c-4 -4 -8.66699 -6 -14 -6s-10.166 2.16699 -14.499 6.5s-6.5 9.5 -6.5 15.5c0 4.66699 2 9 6 13l83 83c4 4 8.66699 6 14 6
c6 0 11 -2 15 -6s6 -9 6 -15c0 -5.33301 -2 -10 -6 -14z" />
    <glyph glyph-name="icircumflex" unicode="&#xee;" horiz-adv-x="503" 
d="M166 562l73 72.999c4.66699 4.66699 9.66699 7 15 7c4.66699 0 9.33398 -2.33301 14.001 -7l74 -73c4 -4 6 -8.66699 6 -14s-2.16699 -10.166 -6.5 -14.499s-9.5 -6.5 -15.5 -6.5c-4.66699 0 -9 2 -13 6l-59 59l-60 -59c-4 -4 -8.66699 -6 -14 -6
c-4.66699 0 -9.33398 2 -14.001 6s-7 8.66699 -7 14s2.33301 10.333 7 15zM276 430.999v-397h177c7.33301 0 12.333 -2.5 15 -7.5s4 -9.16699 4 -12.5c0 -13.333 -6.33301 -20 -19 -20h-399c-7.33301 0 -12.333 2.5 -15 7.5s-4 9.16699 -4 12.5c0 13.333 6.33301 20 19 20
h182v397h-184c-7.33301 0 -12.333 2.5 -15 7.5s-4 9.16699 -4 12.5c0 13.333 6.33301 20 19 20h406c7.33301 0 12.333 -2.5 15 -7.5s4 -9.16699 4 -12.5c0 -13.333 -6.33301 -20 -19 -20h-182z" />
    <glyph glyph-name="ntilde" unicode="&#xf1;" horiz-adv-x="559" 
d="M182 550l73 74c2.66699 2.66699 6 4 10 4c3.33301 0 6.33301 -1.33301 9 -4l64 -64l65 64c3.33301 2 6.33301 3 9 3c9.33301 0 14 -4.33301 14 -13c0 -3.33301 -1.33301 -6.33301 -4 -9l-74 -74c-2 -2 -5.66699 -3 -11 -3c-3.33301 0 -6 1 -8 3l-64 64l-63 -64
c-2.66699 -2.66699 -5.66699 -4 -9 -4c-9.33301 0 -14 5 -14 15c0 3.33301 1 6 3 8zM52 14v437c0 14 6.66699 21 20 21c5.33301 0 10 -2 14 -6l402 -403v388c0 8 2.5 13.333 7.5 16s9.16699 4 12.5 4c13.333 0 20 -6.66699 20 -20v-437c0 -13.333 -6.66699 -20 -20 -20
c-5.33301 0 -10 2 -14 6l-402 402v-388c0 -7.33301 -2.5 -12.333 -7.5 -15s-9.16699 -4 -12.5 -4c-13.333 0 -20 6.33301 -20 19z" />
    <glyph glyph-name="ograve" unicode="&#xf2;" horiz-adv-x="838" 
d="M163 0l-105 106c-4 3.33301 -6 8 -6 14v234c0 5.33301 2 10 6 14l97 98c4 3.33301 9 5 15 5h504c5.33301 0 10 -1.66699 14 -5l104 -104c4 -4 6 -9 6 -15v-225c0 -5.33301 -2 -10 -6 -14l-108 -108c-4 -4 -8.66699 -6 -14 -6h-492c-6 0 -11 2 -15 6zM661 34l97 97v207
l-93 93h-487l-86 -86v-216l94 -95h475zM383 642l83 -82.999c4 -4 6 -8.66699 6 -14c0 -6 -2 -11 -6 -15s-9 -6 -15 -6c-5.33301 0 -10 2 -14 6l-83 83c-4 4 -6 8.66699 -6 14s2.16699 10.166 6.5 14.499s9.5 6.5 15.5 6.5c4.66699 0 9 -2 13 -6z" />
    <glyph glyph-name="oacute" unicode="&#xf3;" horiz-adv-x="838" 
d="M163 0l-105 106c-4 3.33301 -6 8 -6 14v234c0 5.33301 2 10 6 14l97 98c4 3.33301 9 5 15 5h504c5.33301 0 10 -1.66699 14 -5l104 -104c4 -4 6 -9 6 -15v-225c0 -5.33301 -2 -10 -6 -14l-108 -108c-4 -4 -8.66699 -6 -14 -6h-492c-6 0 -11 2 -15 6zM661 34l97 97v207
l-93 93h-487l-86 -86v-216l94 -95h475zM466 613l-83.001 -83c-4 -4 -8.66699 -6 -14 -6s-10.166 2.16699 -14.499 6.5s-6.5 9.5 -6.5 15.5c0 4.66699 2 9 6 13l83 83c4 4 8.66699 6 14 6c6 0 11 -2 15 -6s6 -9 6 -15c0 -5.33301 -2 -10 -6 -14z" />
    <glyph glyph-name="ocircumflex" unicode="&#xf4;" horiz-adv-x="800" 
d="M313 562l73 72.999c4.66699 4.66699 9.66699 7 15 7s10 -2.33301 14 -7l74 -73c4 -4 6 -8.66699 6 -14s-2.16699 -10.166 -6.5 -14.499s-9.5 -6.5 -15.5 -6.5c-4.66699 0 -9 2 -13 6l-59 59l-59 -59c-4 -4 -8.66699 -6 -14 -6c-6 0 -11 2 -15 6s-6 9 -6 15
c0 5.33301 2 10 6 14zM145 -0.000976562l-106 105.999c-3.33301 2.66699 -5 7.33398 -5 14.001v234c0 6 1.66699 10.667 5 14l98 98c4 3.33301 8.66699 5 14 5h504c6 0 11 -1.66699 15 -5l104 -104c3.33301 -4 5 -9 5 -15v-225c0 -5.33301 -1.66699 -10 -5 -14l-108 -108
c-4 -4 -9 -6 -15 -6h-492c-5.33301 0 -10 2 -14 6zM642 33.998l97 97v207l-93 93h-486l-86 -86v-216l94 -95h474z" />
    <glyph glyph-name="otilde" unicode="&#xf5;" horiz-adv-x="813" 
d="M309 550l73 74c2.66699 2.66699 6 4 10 4c3.33301 0 6.33301 -1.33301 9 -4l64 -64l65 64c3.33301 2 6.33301 3 9 3c9.33301 0 14 -4.33301 14 -13c0 -3.33301 -1.33301 -6.33301 -4 -9l-75 -74c-2 -2 -5.33301 -3 -10 -3c-2.66699 0 -5.66699 1 -9 3l-64 64l-63 -64
c-2.66699 -2.66699 -5.66699 -4 -9 -4c-8.66699 0 -13 5 -13 15c0 3.33301 1 6 3 8zM151 0l-105 106c-4 3.33301 -6 8 -6 14v234c0 5.33301 2 10 6 14l97 98c4 3.33301 9 5 15 5h504c5.33301 0 10 -1.66699 14 -5l104 -104c4 -4 6 -9 6 -15v-225c0 -5.33301 -2 -10 -6 -14
l-108 -108c-4 -4 -8.66699 -6 -14 -6h-492c-6 0 -11 2 -15 6zM649 34l97 97v207l-93 93h-487l-86 -86v-216l94 -95h475z" />
    <glyph glyph-name="odieresis" unicode="&#xf6;" horiz-adv-x="838" 
d="M163 0l-105 106c-4 3.33301 -6 8 -6 14v234c0 5.33301 2 10 6 14l97 98c4 3.33301 9 5 15 5h504c5.33301 0 10 -1.66699 14 -5l104 -104c4 -4 6 -9 6 -15v-225c0 -5.33301 -2 -10 -6 -14l-108 -108c-4 -4 -8.66699 -6 -14 -6h-492c-6 0 -11 2 -15 6zM661 34l97 97v207
l-93 93h-487l-86 -86v-216l94 -95h475zM373 642v-105c0 -8 -2.5 -13.333 -7.5 -16s-9.16699 -4 -12.5 -4c-13.333 0 -20 6.66699 -20 20v105c0 8 2.5 13.333 7.5 16s9.16699 4 12.5 4c13.333 0 20 -6.66699 20 -20zM519 642v-105c0 -8 -2.5 -13.333 -7.5 -16
s-9.16699 -4 -12.5 -4c-13.333 0 -20 6.66699 -20 20v105c0 8 2.5 13.333 7.5 16s9.16699 4 12.5 4c13.333 0 20 -6.66699 20 -20z" />
    <glyph glyph-name="divide" unicode="&#xf7;" horiz-adv-x="622" 
d="M53 272h504c7.33301 0 12.333 -2.5 15 -7.5s4 -9.16699 4 -12.5c0 -13.333 -6.33301 -20 -19 -20h-504c-8 0 -13.333 2.5 -16 7.5s-4 9.16699 -4 12.5c0 13.333 6.66699 20 20 20zM325 419v-60c0 -7.33301 -2.5 -12.333 -7.5 -15s-9.16699 -4 -12.5 -4
c-13.333 0 -20 6.33301 -20 19v60c0 8 2.5 13.333 7.5 16s9.16699 4 12.5 4c13.333 0 20 -6.66699 20 -20zM325 118v-60c0 -8 -2.5 -13.333 -7.5 -16s-9.16699 -4 -12.5 -4c-13.333 0 -20 6.66699 -20 20v60c0 7.33301 2.5 12.333 7.5 15s9.16699 4 12.5 4
c13.333 0 20 -6.33301 20 -19z" />
    <glyph glyph-name="oslash" unicode="&#xf8;" horiz-adv-x="262" 
d="M218 642c14.667 -12 25.998 -27.167 33.998 -45.5s12 -37.166 12 -56.499c0 -32.667 -8.16699 -58.834 -24.5 -78.501s-33.666 -33.5 -51.999 -41.5s-37.166 -12 -56.499 -12c-32.667 0 -63 11.667 -91 35s-42 56 -42 98c0 32 11.833 62.167 35.5 90.5
s56.5 42.5 98.5 42.5c32 0 60.667 -10.667 86 -32zM69.998 470c17.333 -14.667 37.999 -21.999 61.999 -21.999c28.667 0 51.167 9.5 67.5 28.5s24.5 40.5 24.5 64.5c0 29.333 -9.5 52.166 -28.5 68.499s-40.5 24.5 -64.5 24.5c-29.333 0 -52.166 -9.66699 -68.499 -29
s-24.5 -41 -24.5 -65c0 -28.667 10.667 -52 32 -70z" />
    <glyph glyph-name="ugrave" unicode="&#xf9;" horiz-adv-x="639" 
d="M94 451v-325l92 -92h272l98 97v320c0 8 2.5 13.333 7.5 16s9.16699 4 12.5 4c13.333 0 20 -6.66699 20 -20v-329c0 -6 -2 -10.667 -6 -14l-108 -108c-5.33301 -4 -10.333 -6 -15 -6h-289c-6 0 -11 2 -15 6l-103 103c-4 4 -6 9 -6 15v333c0 8 2.5 13.333 7.5 16
s9.16699 4 12.5 4c13.333 0 20 -6.66699 20 -20zM294 642l83 -82.999c4 -4 6 -8.66699 6 -14c0 -6 -2 -11 -6 -15s-9 -6 -15 -6c-5.33301 0 -10 2 -14 6l-83 83c-4 4 -6 8.66699 -6 14s2.16699 10.166 6.5 14.499s9.5 6.5 15.5 6.5c4.66699 0 9 -2 13 -6z" />
    <glyph glyph-name="uacute" unicode="&#xfa;" horiz-adv-x="639" 
d="M94 451v-325l92 -92h272l98 97v320c0 8 2.5 13.333 7.5 16s9.16699 4 12.5 4c13.333 0 20 -6.66699 20 -20v-329c0 -6 -2 -10.667 -6 -14l-108 -108c-5.33301 -4 -10.333 -6 -15 -6h-289c-6 0 -11 2 -15 6l-103 103c-4 4 -6 9 -6 15v333c0 8 2.5 13.333 7.5 16
s9.16699 4 12.5 4c13.333 0 20 -6.66699 20 -20zM383 613l-83.001 -83c-4 -4 -8.66699 -6 -14 -6s-10.166 2.16699 -14.499 6.5s-6.5 9.5 -6.5 15.5c0 4.66699 2 9 6 13l83 83c4 4 8.66699 6 14 6c6 0 11 -2 15 -6s6 -9 6 -15c0 -5.33301 -2 -10 -6 -14z" />
    <glyph glyph-name="ucircumflex" unicode="&#xfb;" horiz-adv-x="591" 
d="M202 562l73 72.999c4.66699 4.66699 9.66699 7 15 7c4.66699 0 9.33398 -2.33301 14.001 -7l74 -73c4 -4 6 -8.66699 6 -14s-2.16699 -10.166 -6.5 -14.499s-9.5 -6.5 -15.5 -6.5c-4.66699 0 -9 2 -13 6l-59 59l-60 -59c-4 -4 -8.66699 -6 -14 -6
c-4.66699 0 -9.33398 2 -14.001 6s-7 8.66699 -7 14s2.33301 10.333 7 15zM61 450.999v-324.999l92 -92h272l97 97v320c0 8 2.5 13.333 7.5 16s9.16699 4 12.5 4c13.333 0 20 -6.66699 20 -20v-329c0 -6.66699 -1.66699 -11.334 -5 -14.001l-109 -108
c-5.33301 -4 -10 -6 -14 -6h-290c-6 0 -10.667 2 -14 6l-104 103c-3.33301 4 -5 9 -5 15v333c0 8 2.5 13.333 7.5 16s9.16699 4 12.5 4c13.333 0 20 -6.66699 20 -20z" />
    <glyph glyph-name="udieresis" unicode="&#xfc;" horiz-adv-x="591" 
d="M249 638v-106c0 -7.33301 -2.5 -12.333 -7.5 -15s-9.16699 -4 -12.5 -4c-13.333 0 -20 6.33301 -20 19v106c0 7.33301 2.5 12.333 7.5 15s9.16699 4 12.5 4c13.333 0 20 -6.33301 20 -19zM394 638v-106c0 -7.33301 -2.5 -12.333 -7.5 -15s-9.16699 -4 -12.5 -4
c-13.333 0 -20 6.33301 -20 19v106c0 7.33301 2.5 12.333 7.5 15s9.16699 4 12.5 4c13.333 0 20 -6.33301 20 -19zM75 451v-325l92 -92h272l98 97v320c0 8 2.5 13.333 7.5 16s9.16699 4 12.5 4c13.333 0 20 -6.66699 20 -20v-329c0 -6 -2 -10.667 -6 -14l-109 -108
c-4 -4 -8.66699 -6 -14 -6h-290c-5.33301 0 -10 2 -14 6l-103 103c-4 4 -6 9 -6 15v333c0 8 2.5 13.333 7.5 16s9.16699 4 12.5 4c13.333 0 20 -6.66699 20 -20z" />
    <glyph glyph-name="OE" unicode="&#x152;" horiz-adv-x="1551" 
d="M763 -6h-564.999c-6.66699 0 -11.334 2 -14.001 6l-105 106c-3.33301 3.33301 -5 8 -5 14v362c0 6.66699 1.66699 11.667 5 15l106 105c4 4 8.66699 6 14 6h571h701c8 0 13.333 -2.5 16 -7.5s4 -9.16699 4 -12.5c0 -13.333 -6.66699 -20 -20 -20h-681v-330h549
c8 0 13.333 -2.5 16 -7.5s4 -9.16699 4 -12.5c0 -13.333 -6.66699 -20 -20 -20h-549v-164h674c7.33301 0 12.333 -2.5 15 -7.5s4 -9.16699 4 -12.5c0 -13.333 -6.33301 -20 -19 -20h-701zM750.001 34v534h-542l-94 -94v-345l93 -95h543z" />
    <glyph glyph-name="oe" unicode="&#x153;" horiz-adv-x="1201" 
d="M149 -6c-6 0 -11 2 -15 6l-80 81c-3.33301 4 -5 8.66699 -5 14v276c0 6.66699 1.66699 11.667 5 15l81 80c4 3.33301 9 5 15 5h444h451v-40h-433v-233h322v-40h-322v-124h505v-40h-525h-443zM572 431h-414l-69 -69v-258l69 -70h414v397z" />
    <glyph glyph-name="florin" unicode="&#x192;" horiz-adv-x="310" 
d="M141 564v76c0 7.33301 2.5 12.333 7.5 15s9.16699 4 12.5 4c13.333 0 20 -6.33301 20 -19v-76h95c7.33301 0 12.333 -2.5 15 -7.5s4 -9.16699 4 -12.5c0 -13.333 -6.33301 -20 -19 -20h-95v-165h95c7.33301 0 12.333 -2.5 15 -7.5s4 -9.16699 4 -12.5
c0 -13.333 -6.33301 -20 -19 -20h-95v-76c0 -7.33301 -2.5 -12.333 -7.5 -15s-9.16699 -4 -12.5 -4c-13.333 0 -20 6.33301 -20 19v76h-95c-8 0 -13.333 2.5 -16 7.5s-4 9.16699 -4 12.5c0 13.333 6.66699 20 20 20h95v165h-95c-8 0 -13.333 2.5 -16 7.5s-4 9.16699 -4 12.5
c0 13.333 6.66699 20 20 20h95z" />
    <glyph glyph-name="tilde" unicode="&#x303;" horiz-adv-x="1530" 
d="M26 29l574 572.999c4 4 8.66699 6 14 6h34c6 0 10.667 -2 14 -6l573 -573c4 -4 6 -8.66699 6 -14s-2.16699 -10.166 -6.5 -14.499s-9.5 -6.5 -15.5 -6.5c-4.66699 0 -9 2 -13 6l-567 568h-16l-568 -568c-4 -4 -8.66699 -6 -14 -6c-6 0 -11 2 -15 6s-6 9 -6 15
c0 5.33301 2 10 6 14zM922 601.999l572.001 -573c4 -4 6 -8.66699 6 -14s-2.16699 -10.166 -6.5 -14.499s-9.5 -6.5 -15.5 -6.5c-4 0 -8 2 -12 6l-573 574c-4 4 -6 8.66699 -6 14s2.16699 10.166 6.5 14.499s9.16602 6.5 14.499 6.5s10 -2.33301 14 -7z" />
    <glyph glyph-name="summation" unicode="&#x3a3;" horiz-adv-x="1211" 
d="M80 466l431.001 -431.999h8l431 432c4 4 8.33301 6 13 6c5.33301 0 10.166 -2.16699 14.499 -6.5s6.5 -9.5 6.5 -15.5c0 -4.66699 -2 -9 -6 -13l-436 -437c-3.33301 -4 -8 -6 -14 -6h-26c-5.33301 0 -10 2 -14 6l-437 437c-4 4 -6 8.66699 -6 14
s2.16699 10.166 6.5 14.499s9.5 6.5 15.5 6.5c4.66699 0 9 -2 13 -6zM700.001 29.001l436 437c4 4 8.33301 6 13 6c4 0 8.5 -1.83301 13.5 -5.5s7.5 -9.5 7.5 -17.5c0 -4.66699 -1.66699 -8.66699 -5 -12l-436 -437c-4 -4 -8.66699 -6 -14 -6c-6 0 -11 2 -15 6s-6 9 -6 15
c0 5.33301 2 10 6 14z" />
    <glyph glyph-name="pi" unicode="&#x3c0;" horiz-adv-x="482" 
d="M111 431h-73c-8 0 -13.333 2.5 -16 7.5s-4 9.16699 -4 12.5c0 13.333 6.66699 20 20 20h400c8 0 13.333 -2.5 16 -7.5s4 -9.16699 4 -12.5c0 -13.333 -6.66699 -20 -20 -20h-78v-417c0 -7.33301 -2.5 -12.333 -7.5 -15s-9.16699 -4 -12.5 -4
c-13.333 0 -20 6.33301 -20 19v417h-169v-417c0 -7.33301 -2.5 -12.333 -7.5 -15s-9.16699 -4 -12.5 -4c-13.333 0 -20 6.33301 -20 19v417z" />
    <glyph glyph-name="endash" unicode="&#x2013;" horiz-adv-x="819" 
d="M53 272h728c7.33301 0 12.333 -2.5 15 -7.5s4 -9.16699 4 -12.5c0 -13.333 -6.33301 -20 -19 -20h-728c-8 0 -13.333 2.5 -16 7.5s-4 9.16699 -4 12.5c0 13.333 6.66699 20 20 20z" />
    <glyph glyph-name="emdash" unicode="&#x2014;" horiz-adv-x="998" 
d="M53 272h901c7.33301 0 12.333 -2.5 15 -7.5s4 -9.16699 4 -12.5c0 -13.333 -6.33301 -20 -19 -20h-901c-8 0 -13.333 2.5 -16 7.5s-4 9.16699 -4 12.5c0 13.333 6.66699 20 20 20z" />
    <glyph glyph-name="quoteleft" unicode="&#x2018;" horiz-adv-x="198" 
d="M55 670l120 -207c2 -3.33301 3 -6.33301 3 -9c0 -5.33301 -2.33301 -10.333 -7 -15s-9.66699 -7 -15 -7c-6.66699 0 -12 3.33301 -16 10l-120 208c-2 3.33301 -3 6.33301 -3 9c0 8 2.5 13.5 7.5 16.5s9.83301 4.5 14.5 4.5c6.66699 0 12 -3.33301 16 -10z" />
    <glyph glyph-name="quoteright" unicode="&#x2019;" horiz-adv-x="198" 
d="M175 650l-120 -208c-4 -6.66699 -9.33301 -10 -16 -10c-14.667 0 -22 7.33301 -22 22c0 2.66699 1 5.66699 3 9l120 207c4 6.66699 9.33301 10 16 10c14.667 0 22 -7 22 -21c0 -2.66699 -1 -5.66699 -3 -9z" />
    <glyph glyph-name="quotedblleft" unicode="&#x201c;" horiz-adv-x="325" 
d="M50 670l120 -207c2 -3.33301 3 -6.33301 3 -9c0 -5.33301 -2.33301 -10.333 -7 -15s-9.66699 -7 -15 -7c-6.66699 0 -12 3.33301 -16 10l-120 208c-2 3.33301 -3 6.33301 -3 9c0 6 2.33301 11 7 15s9.66699 6 15 6c6.66699 0 12 -3.33301 16 -10zM190 670l120 -207
c2 -3.33301 3 -6.33301 3 -9c0 -6 -2.5 -11.167 -7.5 -15.5s-10.167 -6.5 -15.5 -6.5c-6.66699 0 -12 3.33301 -16 10l-120 208c-2 3.33301 -3 6.33301 -3 9c0 6 2.33301 11 7 15s10 6 16 6c6.66699 0 12 -3.33301 16 -10z" />
    <glyph glyph-name="quotedblright" unicode="&#x201d;" horiz-adv-x="288" 
d="M301 650l-120 -208c-4 -6.66699 -9.33301 -10 -16 -10c-14.667 0 -22 7.33301 -22 22c0 2.66699 1 5.66699 3 9l120 207c4 6.66699 9.33301 10 16 10c14.667 0 22 -7 22 -21c0 -2.66699 -1 -5.66699 -3 -9zM162 650l-120 -208c-4 -6.66699 -9.33301 -10 -16 -10
c-6 0 -11.333 2 -16 6s-7 9.33301 -7 16c0 2.66699 1 5.66699 3 9l120 207c4 6.66699 9.33301 10 16 10c6 0 11.333 -2 16 -6s7 -9 7 -15c0 -2.66699 -1 -5.66699 -3 -9z" />
    <glyph glyph-name="quotedblbase" unicode="&#x201e;" horiz-adv-x="1542" 
d="M55 602l568.001 -567.999h16l567 568c4 4 8.66699 6 14 6c6 0 11 -2 15 -6s6 -9 6 -15c0 -4.66699 -2 -9 -6 -13l-573 -574c-3.33301 -4 -8 -6 -14 -6h-34c-5.33301 0 -10 2 -14 6l-574 574c-4 4 -6 8.66699 -6 14s2.16699 10.166 6.5 14.499s9.16602 6.5 14.499 6.5
s10 -2.33301 14 -7zM845.001 29.001l573 573c4 4 8.33301 6 13 6c6 0 11 -2 15 -6s6 -9 6 -15c0 -4.66699 -2 -9 -6 -13l-572 -574c-4 -4 -8.66699 -6 -14 -6c-6 0 -11 2 -15 6s-6 9 -6 15c0 5.33301 2 10 6 14z" />
    <glyph glyph-name="dagger" unicode="&#x2020;" horiz-adv-x="366" 
d="M162 564v76c0 7.33301 2.5 12.333 7.5 15s9.16699 4 12.5 4c13.333 0 20 -6.33301 20 -19v-76h95c7.33301 0 12.333 -2.5 15 -7.5s4 -9.16699 4 -12.5c0 -13.333 -6.33301 -20 -19 -20h-95v-281c0 -7.33301 -2.5 -12.333 -7.5 -15s-9.16699 -4 -12.5 -4
c-13.333 0 -20 6.33301 -20 19v281h-96c-7.33301 0 -12.333 2.5 -15 7.5s-4 9.16699 -4 12.5c0 13.333 6.33301 20 19 20h96z" />
    <glyph glyph-name="bullet" unicode="&#x2022;" horiz-adv-x="183" 
d="M91 406c20 0 37 -7 51 -21s21 -31 21 -51s-7 -37 -21 -51s-31 -21 -51 -21s-37 7 -51 21s-21 31 -21 51s7 37 21 51s31 21 51 21z" />
    <glyph glyph-name="ellipsis" unicode="&#x2026;" horiz-adv-x="618" 
d="M46 88v-74c0 -7.33301 -2.5 -12.333 -7.5 -15s-9.16699 -4 -12.5 -4c-13.333 0 -20 6.33301 -20 19v74c0 7.33301 2.5 12.333 7.5 15s9.16699 4 12.5 4c13.333 0 20 -6.33301 20 -19zM290 88v-74c0 -7.33301 -2.5 -12.333 -7.5 -15s-9.16699 -4 -12.5 -4
c-13.333 0 -20 6.33301 -20 19v74c0 7.33301 2.5 12.333 7.5 15s9.16699 4 12.5 4c13.333 0 20 -6.33301 20 -19zM533 88v-74c0 -7.33301 -2.5 -12.333 -7.5 -15s-9.16699 -4 -12.5 -4c-13.333 0 -20 6.33301 -20 19v74c0 7.33301 2.5 12.333 7.5 15s9.16699 4 12.5 4
c13.333 0 20 -6.33301 20 -19z" />
    <glyph glyph-name="perthousand" unicode="&#x2030;" horiz-adv-x="1170" 
d="M112 683h235c5.33301 0 10 -1.66699 14 -5l67 -65c4 -3.33301 6 -8.33301 6 -15v-100c0 -6.66699 -1.66699 -11.667 -5 -15l-67 -67c-4 -4 -9 -6 -15 -6h-235c-6 0 -10.667 2 -14 6l-68 67c-3.33301 4 -5 9 -5 15v100c0 6.66699 2 11.667 6 15l67 65
c4 3.33301 8.66699 5 14 5zM683 636l-632.999 -636c-4 -4 -8.66699 -6 -14 -6c-6 0 -11 2 -15 6s-6 9 -6 15c0 5.33301 2 10 6 14l633 636c4 4 8.66699 6 14 6s10.166 -2.16699 14.499 -6.5s6.5 -9.5 6.5 -15.5c0 -4.66699 -2 -9 -6 -13zM366.001 267h235.001
c5.33301 0 9.66602 -1.66699 12.999 -5l68 -65c4 -4 6 -9 6 -15v-100c0 -6 -2 -11 -6 -15l-67 -67c-4 -4 -8.66699 -6 -14 -6h-235c-6 0 -11 2 -15 6l-67 67c-4 4 -6 9 -6 15v100c0 6 2.33301 11 7 15l67 65c4 3.33301 8.66699 5 14 5zM814.002 267h235.001
c5.33301 0 9.66602 -1.66699 12.999 -5l68 -65c4 -4 6 -9 6 -15v-100c0 -6 -2 -11 -6 -15l-67 -67c-4 -4 -8.66699 -6 -14 -6h-235c-6 0 -11 2 -15 6l-67 67c-4 4 -6 9 -6 15v100c0 6 2.33301 11 7 15l67 65c4 3.33301 8.66699 5 14 5zM318.003 174v-84l56 -56h218l56 56v84
l-55 53h-219zM65.0029 590v-84l56 -56h217l56 56v84l-55 53h-219zM766.003 174v-84l56 -56h218l56 56v84l-55 53h-219z" />
    <glyph glyph-name="trademark" unicode="&#x2122;" horiz-adv-x="1082" 
d="M501 342v305c0 14 6.66699 21 20 21c5.33301 0 10 -2 14 -6l228 -228h5l229 228c4 4 8.66699 6 14 6c13.333 0 20 -7 20 -21v-305c0 -8 -2.5 -13.333 -7.5 -16s-9.16699 -4 -12.5 -4c-13.333 0 -20 6.66699 -20 20v256l-200 -199c-4 -3.33301 -8.66699 -5 -14 -5h-23
c-6 0 -10.667 1.66699 -14 5l-199 199v-256c0 -8 -2.5 -13.333 -7.5 -16s-9.16699 -4 -12.5 -4c-13.333 0 -20 6.66699 -20 20zM233 627h-168c-8 0 -13.333 2.5 -16 7.5s-4 9.16699 -4 12.5c0 13.333 6.66699 20 20 20h373c7.33301 0 12.333 -2.5 15 -7.5
s4 -9.16699 4 -12.5c0 -13.333 -6.33301 -20 -19 -20h-165v-285c0 -8 -2.5 -13.333 -7.5 -16s-9.16699 -4 -12.5 -4c-13.333 0 -20 6.66699 -20 20v285z" />
    <glyph glyph-name="notequal" unicode="&#x2260;" horiz-adv-x="676" 
d="M418 370l99 99c4 4 8.66699 6 14 6s10.166 -2.16699 14.499 -6.5s6.5 -9.5 6.5 -15.5c0 -4.66699 -2 -9 -6 -13l-70 -70h107c8 0 13.333 -2.5 16 -7.5s4 -9.16699 4 -12.5c0 -13.333 -6.66699 -20 -20 -20h-147l-159 -159h306c8 0 13.333 -2.5 16 -7.5
s4 -9.16699 4 -12.5c0 -13.333 -6.66699 -20 -20 -20h-346l-101 -101c-4 -4 -8.66699 -6 -14 -6s-10.166 2.16699 -14.499 6.5s-6.5 9.5 -6.5 15.5c0 4.66699 2 9 6 13l72 72h-100c-7.33301 0 -12.333 2.5 -15 7.5s-4 9.16699 -4 12.5c0 13.333 6.33301 20 19 20h140
l159 159h-299c-7.33301 0 -12.333 2.5 -15 7.5s-4 9.16699 -4 12.5c0 13.333 6.33301 20 19 20h339z" />
    <glyph glyph-name="lozenge" unicode="&#x25ca;" horiz-adv-x="386" 
d="M359 281l-147 -253c-4 -6.66699 -10 -10 -18 -10c-7.33301 0 -13 3.33301 -17 10l-147 253c-2 4 -3 7.66699 -3 11c0 2.66699 1 6 3 10l147 252c4 7.33301 10 11 18 11c7.33301 0 13 -3.66699 17 -11l147 -252c2 -4 3 -7.66699 3 -11c0 -2.66699 -1 -6 -3 -10zM194 503
l-123 -212l123 -213l124 213z" />
    <glyph glyph-name=".null" horiz-adv-x="0" 
 />
    <glyph glyph-name="nonmarkingreturn" horiz-adv-x="557" 
 />
  </font>
</defs>
</svg>
